<svg height="497pt" viewBox="0 0 497.616 497" width="497pt" xmlns="http://www.w3.org/2000/svg"><path d="m169.617188 240.308594c30.878906 0 56-25.121094 56-56s-25.121094-56-56-56c-30.882813 0-56 25.121094-56 56s25.117187 56 56 56zm0-96c22.054687 0 40 17.945312 40 40 0 22.054687-17.945313 40-40 40-22.058594 0-40-17.945313-40-40 0-22.054688 17.941406-40 40-40zm0 0"/><path d="m169.617188 208.308594c13.230468 0 24-10.769532 24-24 0-13.234375-10.769532-24-24-24-13.234376 0-24 10.765625-24 24 0 13.230468 10.765624 24 24 24zm0-32c4.40625 0 8 3.589844 8 8 0 4.40625-3.59375 8-8 8-4.410157 0-8-3.59375-8-8 0-4.410156 3.589843-8 8-8zm0 0"/><path d="m465.617188 32.308594v-32h-368v94.421875c-33.671876 14-63.023438 37.691406-83.90625 69.015625l-13.710938 20.5625 13.703125 20.558594c20.890625 31.328124 50.242187 55.007812 83.90625 69.015624v174.425782h32v8c0 22.054687 17.941406 40 40 40 22.054687 0 40-17.945313 40-40v-8h256v-344h-16v328h-255.992187v24c0 13.230468-10.769532 24-24 24-13.234376 0-24-10.769532-24-24v-120h48v80.160156h16v-96.160156h-16v-33.550782c53.414062-6.859374 101.566406-36.371093 131.902343-81.890624l13.710938-20.558594-13.703125-20.5625c-6.429688-9.644532-13.664063-18.558594-21.574219-26.703125l24.429687-14.65625 24.34375 24.34375 128.890626-90.984375v48.5625h16v-72zm-176 91.519531c-33.242188-27.769531-75.457032-43.519531-120-43.519531-8.089844 0-16.105469.535156-24 1.550781v-33.550781h144zm-32 60.480469c0 48.519531-39.480469 88-88 88-48.519532 0-88-39.480469-88-88 0-48.519532 39.480468-88 88-88 48.519531 0 88 39.480468 88 88zm-230.59375 11.6875-7.792969-11.6875 7.792969-11.6875c16.769531-25.152344 39.519531-44.90625 65.648437-58.03125-16.75 18.460937-27.054687 42.878906-27.054687 69.71875s10.304687 51.253906 27.054687 69.71875c-26.128906-13.128906-48.878906-32.878906-65.648437-58.03125zm102.59375 124.3125v112h-16v-152.550782c10.375 3.238282 21.070312 5.597657 32 7v33.550782zm48 0h-16v-32.25c2.664062.113281 5.320312.25 8 .25 2.679687 0 5.335937-.136719 8-.25zm142.382812-136-7.792969 11.6875c-16.765625 25.152344-39.519531 44.902344-65.648437 58.03125 16.753906-18.464844 27.058594-42.878906 27.058594-69.71875s-10.304688-51.257813-27.058594-69.71875c26.128906 13.125 48.882812 32.878906 65.648437 58.03125zm10.855469-82.074219-25.238281 15.144531v-85.070312h-176v52.382812c-5.402344 1.175782-10.753907 2.527344-16 4.167969v-72.550781h336v16h-24v16h38.789062l-109.902344 77.574218zm0 0"/><path d="m433.617188 416.308594v-240h-48v240zm-32-224h16v208h-16zm0 0"/><path d="m321.617188 416.308594h48v-192h-48zm16-176h16v160h-16zm0 0"/><path d="m257.617188 416.308594h48v-144h-48zm16-128h16v112h-16zm0 0"/><path d="m321.617188 32.308594h88v16h-88zm0 0"/><path d="m321.617188 64.308594h64v16h-64zm0 0"/></svg>