<svg height="496pt" viewBox="0 0 496 496" width="496pt" xmlns="http://www.w3.org/2000/svg"><path d="m96 400h16v16h-16zm0 0"/><path d="m64 400h16v16h-16zm0 0"/><path d="m32 400h16v16h-16zm0 0"/><path d="m32 32h64v16h-64zm0 0"/><path d="m496 80v-80h-128v32h-19.839844l-46.71875 58.390625c-16.546875-6.636719-34.554687-10.390625-53.441406-10.390625s-36.894531 3.753906-53.441406 10.390625l-46.71875-58.390625h-19.839844v-32h-128v80h128v-32h12.160156l39.449219 49.3125c-7.777344 4.214844-15.089844 9.167969-21.921875 14.6875h-117.6875c-22.054688 0-40 17.945312-40 40v256c0 22.054688 17.945312 40 40 40h104v32h-32v16h272v-16h-32v-32h104c22.054688 0 40-17.945312 40-40v-256c0-22.054688-17.945312-40-40-40h-117.6875c-6.832031-5.519531-14.144531-10.472656-21.921875-14.6875l39.449219-49.3125h12.160156v32zm-384-16h-96v-48h96zm264 160c0 20.441406-4.9375 39.710938-13.496094 56.871094l-27.75-16.023438c5.863282-12.414062 9.246094-26.230468 9.246094-40.847656s-3.382812-28.433594-9.246094-40.847656l27.75-16.023438c8.558594 17.160156 13.496094 36.429688 13.496094 56.871094zm-242.503906-56.871094 27.75 16.023438c-5.863282 12.414062-9.246094 26.230468-9.246094 40.847656s3.382812 28.433594 9.246094 40.847656l-27.75 16.023438c-8.558594-17.160156-13.496094-36.429688-13.496094-56.871094s4.9375-39.710938 13.496094-56.871094zm35.726562 111.589844c15.921875 22.847656 41.488282 38.441406 70.777344 40.882812v32c-41.089844-2.5625-77-24.464843-98.566406-56.832031zm86.777344 40.875c29.28125-2.433594 54.847656-18.027344 70.777344-40.882812l27.789062 16.050781c-21.566406 32.367187-57.46875 54.269531-98.566406 56.832031zm72-95.59375c0 44.113281-35.886719 80-80 80s-80-35.886719-80-80 35.886719-80 80-80 80 35.886719 80 80zm-126.246094-99 12.492188-9.992188-9.15625-11.449218c11.03125-3.941406 22.726562-6.390625 34.910156-7.152344v32c-29.28125 2.433594-54.847656 18.027344-70.777344 40.882812l-27.789062-16.050781c12.132812-18.214843 28.832031-33.078125 48.414062-43.117187zm254.246094 307h-280v16h160v32h-176v-48h-120c-13.230469 0-24-10.769531-24-24v-24h93.574219l24 16h346.425781v8c0 13.230469-10.769531 24-24 24zm24-280v232h-341.574219l-24-16h-98.425781v-216c0-13.230469 10.769531-24 24-24h100.976562c-22.90625 25.503906-36.976562 59.105469-36.976562 96 0 79.398438 64.601562 144 144 144s144-64.601562 144-144c0-36.894531-14.070312-70.496094-36.976562-96h100.976562c13.230469 0 24 10.769531 24 24zm-125.433594 1.230469-27.789062 16.050781c-15.921875-22.847656-41.488282-38.441406-70.777344-40.882812v-32c12.183594.761718 23.878906 3.210937 34.910156 7.152343l-9.15625 11.449219 12.492188 9.992188 11.90625-14.878907c19.582031 10.046875 36.28125 24.910157 48.414062 43.117188zm29.433594-137.230469h96v48h-96zm0 0"/><path d="m400 32h64v16h-64zm0 0"/><path d="m400 352h64v16h-64zm0 0"/><path d="m400 320h64v16h-64zm0 0"/><path d="m400 288h64v16h-64zm0 0"/><path d="m32 144h56v16h-56zm0 0"/><path d="m32 176h56v16h-56zm0 0"/><path d="m32 208h56v16h-56zm0 0"/><path d="m32 240h56v16h-56zm0 0"/><path d="m400 256h64v16h-64zm0 0"/></svg>