<svg height="496pt" viewBox="0 0 496.0027 496" width="496pt" xmlns="http://www.w3.org/2000/svg"><path d="m32.003906 256h16v16h-16zm0 0"/><path d="m64.003906 256h16v16h-16zm0 0"/><path d="m160.003906 256h16v16h-16zm0 0"/><path d="m160.003906 448h16v16h-16zm0 0"/><path d="m32.003906 448h16v16h-16zm0 0"/><path d="m64.003906 448h16v16h-16zm0 0"/><path d="m32.003906 352h16v16h-16zm0 0"/><path d="m160.003906 352h16v16h-16zm0 0"/><path d="m128.003906 352h16v16h-16zm0 0"/><path d="m408.003906 88v16h60l-66.617187 63.449219c-52.609375 50.101562-121.023438 78.414062-193.398438 80.367187-.050781-5.9375-2.320312-11.296875-5.945312-15.472656 33.542969-23.863281 53.960937-62.734375 53.960937-104.34375 0-35.320312-14.082031-68.207031-39.632812-92.609375-25.542969-24.375-59.039063-36.886719-94.488282-35.246094-64.785156 3.023438-118.238281 56.105469-121.695312 120.847657-2.128906 39.832031 14.039062 77.40625 43.152344 103.007812h-19.335938c-13.234375 0-23.99999975 10.769531-23.99999975 24v32c0 13.230469 10.76562475 24 23.99999975 24h8v16h-8c-13.234375 0-23.99999975 10.769531-23.99999975 24v32c0 13.230469 10.76562475 24 23.99999975 24h8v16h-8c-13.234375 0-23.99999975 10.769531-23.99999975 24v32c0 13.230469 10.76562475 24 23.99999975 24h160c13.230469 0 24-10.769531 24-24v-24h272v-256h-18.929687l-2.230469 1.886719c-65.632812 55.539062-149.105469 86.113281-235.074219 86.113281h-15.765625v-16.191406c76.496094-1.960938 148.824219-31.824219 204.414063-84.769532l67.585937-64.367187v61.328125h16v-88zm-264 200v-48h40c4.414063 0 8 3.585938 8 8v32c0 4.417969-3.585937 8-8 8zm41.382813-63.863281c-.464844-.023438-.910157-.136719-1.382813-.136719h-31.265625c-.449219-2.648438-.734375-5.3125-.734375-8 0-26.472656 21.527344-48 48-48 10.320313 0 20.136719 3.488281 28.367188 9.59375-9.425782 19.046875-24.222656 35.320312-42.984375 46.542969zm54.214843-104.136719h-30.878906c-9.214844 0-16.71875-7.503906-16.71875-16.71875 0-12.480469-6.929687-23.695312-18.089844-29.273438l-7.007812-3.503906c-14.128906-7.054687-22.902344-21.261718-22.902344-37.054687 0-5.417969 1.085938-10.785157 3.160156-15.785157 21.726563 3.703126 41.816407 13.710938 58.160157 29.304688 20.40625 19.488281 32.335937 45.191406 34.277343 73.03125zm-223.429687 1.839844c2.390625-44.816406 32.214844-83.152344 72.628906-98.550782 4.640625 9.496094 7.203125 19.839844 7.203125 30.367188 0 4.527344-1.769531 8.800781-4.96875 12l-9.375 9.375c-6.226562 6.226562-9.65625 14.503906-9.65625 23.3125 0 16.296875 12.167969 30.328125 28.304688 32.640625l10.078125 1.441406c10.046875 1.421875 17.617187 10.160157 17.617187 20.3125 0 6.878907-3.417968 13.261719-9.144531 17.078125l-13.640625 9.097656c-21.398438 14.261719-49.136719 16.917969-73.105469 6.972657-11.382812-18.863281-17.175781-41.015625-15.941406-64.046875zm32.351563 85.074218c4.4375.636719 8.910156 1.085938 13.445312 1.085938 18.617188 0 36.640625-5.464844 52.128906-15.785156l13.640625-9.09375c10.183594-6.785156 16.265625-18.144532 16.265625-30.382813 0-18.058593-13.480468-33.601562-31.351562-36.160156l-10.082032-1.441406c-8.304687-1.183594-14.566406-8.398438-14.566406-16.792969 0-4.527344 1.765625-8.800781 4.964844-12l9.378906-9.375c6.222656-6.222656 9.65625-14.503906 9.65625-23.3125 0-12.097656-2.664062-24.007812-7.640625-35.023438 5.953125-1.304687 12.039063-2.214843 18.269531-2.503906 2.746094-.128906 5.457032-.046875 8.167969.015625-1.773437 5.59375-2.796875 11.40625-2.796875 17.304688 0 21.894531 12.167969 41.574219 31.75 51.375l7.007813 3.503906c5.703125 2.839844 9.242187 8.578125 9.242187 14.953125 0 18.039062 14.679688 32.71875 32.71875 32.71875h30.976563c-.648438 8.992188-2.410157 17.769531-5.128907 26.199219-10.253906-6.621094-22.191406-10.199219-34.566406-10.199219-35.289062 0-64 28.710938-64 64 0 2.679688.253906 5.34375.589844 8h-66.207031c-8.089844-4.863281-15.40625-10.609375-21.863281-17.085938zm-32.519532 73.085938v-32c0-4.414062 3.582032-8 8-8h104v48h-104c-4.417968 0-8-3.582031-8-8zm32 24h112v16h-112zm32 80v-48h104c4.414063 0 8 3.585938 8 8v32c0 4.417969-3.585937 8-8 8zm-64-8v-32c0-4.414062 3.582032-8 8-8h40v48h-40c-4.417968 0-8-3.582031-8-8zm32 24h112v16h-112zm-32 72v-32c0-4.414062 3.582032-8 8-8h104v48h-104c-4.417968 0-8-3.582031-8-8zm176 0c0 4.417969-3.585937 8-8 8h-40v-48h40c4.414063 0 8 3.585938 8 8zm176-40h-32v-152.984375c10.839844-3.351563 21.503906-7.214844 32-11.519531zm16-171.527344c10.917969-5.082031 21.582032-10.703125 32-16.808594v188.335938h-32zm-64 171.527344h-32v-141.496094c10.773438-1.855468 21.445313-4.160156 32-6.925781zm-48 0h-32v-136.351562c10.726563-.464844 21.398438-1.382813 32-2.742188zm192-221.601562v221.601562h-32v-198.261719c11.015625-7.21875 21.726563-14.953125 32-23.339843zm-240.234375 85.601562c.082031 0 .160157-.007812.234375-.007812v136.007812h-17.472656c-3.3125-9.289062-12.113281-16-22.527344-16h-8v-16h8c13.230469 0 24-10.769531 24-24v-32c0-13.230469-10.769531-24-24-24h-8v-16h8c7.0625 0 13.359375-3.128906 17.757813-8zm0 0"/></svg>