<svg height="496pt" viewBox="0 0 496 496" width="496pt" xmlns="http://www.w3.org/2000/svg"><path d="m240 312h16v64h-16zm0 0"/><path d="m288 376h16c8.824219 0 16-7.175781 16-16v-32c0-8.824219-7.175781-16-16-16h-16c-8.824219 0-16 7.175781-16 16v32c0 8.824219 7.175781 16 16 16zm0-48h16l.007812 32h-16.007812zm0 0"/><path d="m336 312h16v64h-16zm0 0"/><path d="m384 312c-8.824219 0-16 7.175781-16 16v32c0 8.824219 7.175781 16 16 16h16c8.824219 0 16-7.175781 16-16v-32c0-8.824219-7.175781-16-16-16zm0 48v-32h16l.007812 32zm0 0"/><path d="m432 312h16v64h-16zm0 0"/><path d="m464 312h16v64h-16zm0 0"/><path d="m496 280h-128v-62.246094l-19.832031-4.960937c-4.273438-20.082031-12.046875-38.890625-23.167969-56.023438l10.496094-17.496093-42.769532-42.777344-17.503906 10.496094c-4.589844-2.984376-9.328125-5.679688-14.160156-8.175782l23.21875-34.816406h131.71875v-16h-16v-48h-16v48h-16v-32h-16v32h-16v-48h-16v48h-16v-16h-16v16h-12.28125l-29.414062 44.121094c-8.738282-3.480469-17.761719-6.296875-27.097657-8.28125l-4.96875-19.839844h-60.476562l-4.96875 19.839844c-20.082031 4.273437-38.882813 12.039062-56.015625 23.160156l-17.503906-10.496094-42.769532 42.777344 10.496094 17.496094c-11.121094 17.132812-18.886719 35.941406-23.167969 56.023437l-19.832031 4.953125v60.492188l19.832031 4.960937c4.273438 20.082031 12.046875 38.890625 23.167969 56.023438l-10.496094 17.488281 42.769532 42.777344 17.503906-10.496094c17.132812 11.121094 35.933594 18.886719 56.015625 23.160156l4.96875 19.839844h24l15.992187 64h158.246094v-16h-16v-32h-16v32h-16v-16h-16v16h-16v-48h-16v48h-16v-32h-16v32h-17.753906l-12.007813-48h19.523438l8-24h274.238281v-16h-285.769531l-8 24h-35.992188l-4.414062-17.65625-5.082031-.917969c-21.46875-3.890625-41.375-12.128906-59.183594-24.472656l-4.238282-2.945313-15.558593 9.335938-25.113281-25.105469 9.335937-15.558593-2.9375-4.246094c-12.34375-17.808594-20.574219-37.722656-24.472656-59.1875l-.917969-5.078125-17.65625-4.414063v-35.507812l17.65625-4.414063.917969-5.078125c3.890625-21.464844 12.128906-41.378906 24.472656-59.1875l2.9375-4.246094-9.335937-15.558593 25.113281-25.113281 15.558593 9.335937 4.238282-2.945313c17.816406-12.34375 37.722656-20.574218 59.183594-24.472656l5.082031-.917968 4.414062-17.648438h35.515625l4.414063 17.65625 5.078125.917969c21.472656 3.890625 41.378906 12.128906 59.1875 24.472656l4.238281 2.945313 15.558594-9.335938 25.113281 25.113281-9.335938 15.558594 2.9375 4.246094c12.34375 17.808593 20.574219 37.722656 24.46875 59.1875l.921876 5.078125 17.664062 4.40625v49.753906h-35.792969c2.519531-10.425781 3.792969-21.152344 3.792969-32 0-74.992188-61.007812-136-136-136s-136 61.007812-136 136 61.007812 136 136 136c14.519531 0 28.824219-2.28125 42.496094-6.777344l-5-15.199218c-4.425782 1.457031-8.945313 2.550781-13.503906 3.480468v-27.617187c0-7.695313-1.824219-15.414063-5.265626-22.3125-8.496093-17.007813-25.589843-27.574219-44.613281-27.574219h-31.648437c-10.6875 0-21.089844 2.136719-30.914063 6.34375-6.125 2.632812-11.871093 6.160156-17.230469 10.417969-9.128906-16.914063-14.320312-36.242188-14.320312-56.761719 0-5.808594.558594-11.480469 1.359375-17.0625 3 .6875 6.039063 1.0625 9.105469 1.0625 9.800781 0 18.480468 5.871094 22.109375 14.96875 6.074219 15.207031 20.59375 25.03125 36.960937 25.03125h42.464844c17.648438 0 32-14.351562 32-32s-14.351562-32-32-32c-8.824219 0-16-7.175781-16-16v-12.839844c0-8.878906-2.601562-17.480468-7.527344-24.871094l-11.992187-17.984374c12.648437-4.945313 26.3125-7.800782 40.609375-8.144532-3.273438 6.222656-5.089844 13.160156-5.089844 20.320313 0 14.902343 7.40625 28.742187 19.808594 37.007812l15.511718 10.34375c7.9375 5.289063 12.679688 14.152344 12.679688 23.6875 0 24.519531 19.953125 44.480469 44.480469 44.480469 12.695312 0 24.777343-3.542969 35.289062-10.054688-.53125 10.773438-2.394531 21.375-5.746093 31.550782l-3.457032 10.503906h201.433594zm-394.152344 29.046875c7.824219-3.351563 16.105469-5.046875 24.617188-5.046875h31.648437c12.917969 0 24.535157 7.175781 30.3125 18.726562 2.34375 4.6875 3.574219 9.929688 3.574219 15.160157v29.800781c-2.65625.175781-5.320312.3125-8 .3125-39.910156 0-75.230469-19.65625-97.054688-49.710938 4.613282-3.855468 9.605469-6.96875 14.902344-9.242187zm37.3125-145.886719c3.167969 4.75 4.839844 10.289063 4.839844 16v12.839844c0 17.648438 14.351562 32 32 32 8.824219 0 16 7.175781 16 16s-7.175781 16-16 16h-42.464844c-9.800781 0-18.480468-5.871094-22.109375-14.96875-6.074219-15.207031-20.59375-25.03125-36.960937-25.03125-1.9375 0-3.878906-.246094-5.808594-.71875 8.785156-30.929688 29.617188-56.800781 57.160156-72.144531zm100.839844 56.359375c0-14.902343-7.40625-28.742187-19.808594-37.007812l-15.511718-10.34375c-7.9375-5.289063-12.679688-14.152344-12.679688-23.6875 0-7.191407 2.953125-14 7.96875-19.289063 54.191406 7.257813 97.03125 50.710938 103.207031 105.234375-9.527343 8.75-21.703125 13.574219-34.695312 13.574219-15.703125 0-28.480469-12.777344-28.480469-28.480469zm0 0"/><path d="m224 280h56v16h-56zm0 0"/></svg>