<svg height="496pt" viewBox="0 0 496 496" width="496pt" xmlns="http://www.w3.org/2000/svg"><path d="m457.710938 357.472656-81.710938-27.242187v-16.574219c19.960938-13.046875 34.265625-33.96875 38.574219-58.328125 18.921875-3.152344 33.425781-19.527344 33.425781-39.328125v-65.335938c0-61.023437-49.640625-110.664062-110.664062-110.664062-30.609376 0-59.222657 12.527344-80.0625 34.472656-23.050782-45.59375-69.425782-74.472656-121.273438-74.472656-74.992188 0-136 61.007812-136 136 0 65.558594 46.625 120.425781 108.457031 133.191406l-33.402343 66.808594h-75.054688v16h84.945312l40.269532-80.542969c3.570312.277344 7.144531.542969 10.785156.542969 30.222656 0 59.382812-10.136719 83.128906-28.511719 5.824219 6.085938 13.542969 10.3125 22.285156 11.816407 4.296876 24.367187 18.609376 45.296874 38.578126 58.351562v16.574219l-81.710938 27.234375c-22.898438 7.640625-38.28125 28.992187-38.28125 53.136718v85.398438h336v-85.398438c0-24.144531-15.382812-45.496093-38.289062-53.128906zm-74.375-7.929687-5.785157 52.023437-37.214843-26.582031 29.824218-29.832031zm-64.273438 82.457031h17.875l6 48h-29.882812zm19.785156-16h-21.695312l-7.695313-16.929688 18.542969-13.238281 18.542969 13.246094zm77.152344-177.472656v-45.046875c9.289062 3.3125 16 12.113281 16 22.527343 0 10.417969-6.710938 19.207032-16 22.519532zm-78.664062-182.527344c52.199218 0 94.664062 42.464844 94.664062 94.664062v33.542969c-4.671875-3.535156-10.054688-6.183593-16-7.390625v-24.816406h-16c0 13.230469-10.769531 24-24 24-6.910156 0-13.296875-2.953125-17.984375-8.304688l-6.015625-6.878906-6.015625 6.886719c-9.367187 10.703125-26.59375 10.703125-35.960937 0l-6.023438-6.886719-6.015625 6.886719c-4.6875 5.34375-11.074219 8.296875-17.984375 8.296875-13.230469 0-24-10.769531-24-24h-16v24.808594c-5.945312 1.214844-11.328125 3.855468-16 7.390625v-47.40625c0-19.832031 14.121094-37.058594 33.566406-40.953125l2.859375-.566406 2.988281-3.753907c18.074219-22.566406 45.019532-35.519531 73.921876-35.519531zm-201.335938-8c15.03125 0 29.351562 3.847656 41.945312 10.671875l-46.226562 69.328125h-83.3125c4.058594-44.785156 41.769531-80 87.59375-80zm55.265625 19.535156c11.832031 9.542969 21.199219 22.175782 26.871094 36.984375-6.328125 9.3125-10.136719 20.402344-10.136719 32.273438v59.894531l-61.703125-61.703125zm52.636719 15.921875c-5.0625 2.078125-9.671875 4.894531-13.863282 8.230469-15.871093-33.726562-48.632812-56.511719-86.039062-59.367188v-16.023437c43.136719 2.824219 81.03125 28.304687 99.902344 67.160156zm-115.902344-67.050781v16c-32.230469 2.472656-60.398438 19.625-77.742188 44.859375l-13.90625-8.035156c20.160157-29.992188 53.503907-50.292969 91.648438-52.824219zm-99.558594 66.730469 13.878906 8.007812c-6.542968 13.609375-10.320312 28.785157-10.320312 44.855469s3.777344 31.246094 10.3125 44.855469l-13.878906 8.007812c-7.882813-15.976562-12.433594-33.878906-12.433594-52.863281s4.550781-36.886719 12.441406-52.863281zm7.910156 119.632812 13.90625-8.027343c17.34375 25.226562 45.511719 42.378906 77.742188 44.851562v16c-38.144531-2.53125-71.488281-22.832031-91.648438-52.824219zm107.648438 52.871094v-15.945313c19.023438-1.4375 37.105469-8.007812 52.6875-19.230468l-9.34375-12.984375c-15.015625 10.808593-32.777344 16.519531-51.34375 16.519531-45.824219 0-83.535156-35.214844-87.59375-80h84.28125l75.6875 75.6875c.328125 3.535156 1.050781 6.9375 2.25 10.144531-19.097656 15.183594-42.289062 24.183594-66.625 25.808594zm80-39.640625c0-10.414062 6.710938-19.214844 16-22.527344v45.046875c-9.289062-3.304687-16-12.105469-16-22.519531zm32 24v-56.207031c6.703125 5.078125 14.960938 8.207031 24 8.207031 8.6875 0 17.105469-2.902344 24-8.144531 13.800781 10.488281 34.199219 10.488281 48 0 6.894531 5.242187 15.3125 8.144531 24 8.144531 9.039062 0 17.296875-3.128906 24-8.207031v56.207031c0 39.695312-32.304688 72-72 72s-72-32.304688-72-72zm72 88c11.296875 0 22.0625-2.214844 32-6.113281v10.800781l-32 32-32-32v-10.800781c9.9375 3.898437 20.703125 6.113281 32 6.113281zm-42.160156 17.152344 29.824218 29.832031-37.214843 26.582031-5.785157-52.023437zm-109.839844 65.449218c0-17.25 10.992188-32.496093 27.351562-37.953124l53.792969-17.929688 8.40625 75.714844 30.632813-21.882813 7.59375 16.695313-6.839844 54.753906h-56.9375v-64h-16v64h-48zm304 69.398438h-48v-64h-16v64h-56.9375l-6.839844-54.753906 7.59375-16.695313 30.632813 21.882813 8.40625-75.714844 53.792969 17.929688c16.359374 5.457031 27.351562 20.703124 27.351562 37.953124zm0 0"/><path d="m296 208c0 4.417969-3.582031 8-8 8s-8-3.582031-8-8 3.582031-8 8-8 8 3.582031 8 8zm0 0"/><path d="m376 208c0 4.417969-3.582031 8-8 8s-8-3.582031-8-8 3.582031-8 8-8 8 3.582031 8 8zm0 0"/><path d="m360 256h-16c0 8.824219-7.175781 16-16 16s-16-7.175781-16-16h-16c0 17.648438 14.351562 32 32 32s32-14.351562 32-32zm0 0"/><path d="m16 304h48v16h-48zm0 0"/><path d="m16 272h48v16h-48zm0 0"/></svg>