<svg height="496pt" viewBox="0 0 496 496" width="496pt" xmlns="http://www.w3.org/2000/svg"><path d="m216 32h64v16h-64zm0 0"/><path d="m296 32h16v16h-16zm0 0"/><path d="m184 32h16v16h-16zm0 0"/><path d="m224 448h48v16h-48zm0 0"/><path d="m496 278.246094v-60.503906l-21.894531-5.445313c-1.640625-4.890625-3.578125-9.609375-5.808594-14.113281l11.605469-19.304688-42.78125-42.78125-19.433594 11.679688c-7.136719-3.191406-18.152344-7.152344-25.679688-9.648438v-98.128906c0-22.054688-17.945312-40-40-40h-208.007812c-22.054688 0-40 17.945312-40 40v98.199219l9.054688-1.207031c2.296874-.304688 4.617187-.527344 6.945312-.6875v107.664062l-86.480469 63.917969c-11.03125-17.34375-17.519531-37.855469-17.519531-59.886719 0-47.0625 29.726562-89.414062 73.984375-105.382812l-5.433594-15.050782c-50.566406 18.25-84.550781 66.640625-84.550781 120.433594 0 62.375 44.855469 114.480469 104 125.742188v82.257812c0 22.054688 17.945312 40 40 40h208c22.054688 0 40-17.945312 40-40v-98.136719c7.535156-2.488281 18.542969-6.449219 25.679688-9.640625l19.441406 11.679688 42.78125-42.78125-11.605469-19.296875c2.230469-4.503907 4.175781-9.222657 5.808594-14.113281zm-104-89.589844c23.976562 9.589844 40 32.71875 40 59.34375 0 26.617188-16.023438 49.742188-40 59.34375zm-248-172.65625h208c13.230469 0 24 10.769531 24 24v24h-256v-24c0-13.230469 10.769531-24 24-24zm-24 64h256v336h-256v-40.246094c2.648438.15625 5.3125.246094 8 .246094 2.703125 0 5.34375-.238281 8-.40625v24.40625h224v-304h-224v24.40625c-2.65625-.167969-5.296875-.40625-8-.40625-2.664062 0-5.335938.078125-8 .246094zm120 168c0 22.03125-6.488281 42.542969-17.519531 59.886719l-86.480469-63.917969v-107.5625c58.023438 4.128906 104 52.539062 104 111.59375zm16 0c0-62.367188-44.863281-114.390625-104-125.664062v-10.335938h192v272h-192v-10.335938c59.136719-11.273437 104-63.296874 104-125.664062zm-212.984375 72.753906 84.984375-62.808594 84.984375 62.808594c-20.558594 23.972656-51 39.246094-84.984375 39.246094s-64.425781-15.273438-84.984375-39.246094zm308.984375 159.246094h-208c-13.230469 0-24-10.769531-24-24v-24h256v24c0 13.230469-10.769531 24-24 24zm109.414062-209.617188-1.285156 4.417969c-2 6.886719-4.695312 13.429688-8 19.4375l-2.226562 4.035157 9.851562 16.382812-25.105468 25.097656-16.375-9.832031-4.035157 2.214844c-3.894531 2.152343-13.855469 5.925781-22.230469 8.839843v-16.640624c33.273438-10.367188 56-40.886719 56-76.328126 0-35.449218-22.726562-65.960937-56-76.320312v-16.648438c8.375 2.914063 18.335938 6.695313 22.230469 8.839844l4.035157 2.226563 16.382812-9.847657 25.097656 25.09375-9.851562 16.382813 2.226562 4.035156c3.304688 6 6 12.535157 8 19.4375l1.285156 4.417969 18.585938 4.632812v35.496094zm0 0"/><path d="m248 128h80v16h-80zm0 0"/><path d="m264 160h64v16h-64zm0 0"/><path d="m272 192h56v16h-56zm0 0"/><path d="m272 224h56v16h-56zm0 0"/></svg>