<svg height="496pt" viewBox="0 0 496.008 496" width="496pt" xmlns="http://www.w3.org/2000/svg"><path d="m480 321.476562v-281.472656c0-22.054687-17.945312-39.99999975-40-39.99999975h-384c-22.054688 0-40 17.94531275-40 39.99999975v281.472656c-9.289062 3.320313-16 12.121094-16 22.527344v77.335938c0 8.59375 2.839844 17.121094 8 23.992187l16 21.335938v29.335937h128v-29.335937l16-21.335938c2.984375-3.984375 5.089844-8.542969 6.414062-13.328125h147.042969c1.328125 4.800782 3.535157 9.320313 6.550781 13.328125l16 21.335938v29.335937h128v-29.335937l16-21.335938c5.160157-6.871093 8-15.398437 8-23.992187v-77.335938c-.007812-10.40625-6.71875-19.207031-16.007812-22.527344zm-424-305.472656h384c13.230469 0 24 10.769532 24 24v281.457032c-.304688.109374-.632812.160156-.9375.277343-2.0625-7.589843-7.71875-13.636719-15.0625-16.261719v-225.472656c0-8.824218-7.175781-16-16-16h-368c-8.824219 0-16 7.175782-16 16v225.472656c-7.328125 2.617188-12.96875 8.648438-15.046875 16.207032-.304687-.128906-.640625-.175782-.953125-.289063v-281.390625c0-13.230468 10.769531-24 24-24zm352 272c-2.816406 0-5.488281.574219-8 1.472656v-33.472656h32v49.472656c-.304688.113282-.632812.167969-.929688.289063-2.757812-10.203125-12.007812-17.761719-23.070312-17.761719zm-54.527344-48h-210.945312c-3.3125-9.289062-12.113282-16-22.527344-16s-19.214844 6.710938-22.527344 16h-33.472656v-160h368v160h-33.472656c-3.3125-9.289062-12.113282-16-22.527344-16s-19.214844 6.710938-22.527344 16zm-288.542968 65.761719c-.296876-.121094-.625-.175781-.929688-.289063v-49.472656h32v33.472656c-2.511719-.898437-5.183594-1.472656-8-1.472656-11.0625 0-20.304688 7.558594-23.070312 17.761719zm95.0625 115.574219c0 5.160156-1.703126 10.265625-4.800782 14.398437l-19.199218 25.601563v18.664062h-96v-18.664062l-19.191407-25.601563c-3.097656-4.132812-4.800781-9.238281-4.800781-14.398437v-77.335938c0-4.40625 3.59375-7.992187 8-8h.007812c2.136719 0 4.136719.832032 5.648438 2.34375 1.511719 1.503906 2.34375 3.511719 2.34375 5.65625v48h16v-64c0-4.414062 3.59375-8 8-8s8 3.585938 8 8v64h16v-80c0-4.414062 3.59375-8 8-8s8 3.585938 8 8v80h16v-144c0-4.40625 3.59375-8 8-8s8 3.59375 8 8v88h-.007812v80h16.007812v-64h8c4.40625 0 8 3.585938 8 8zm-7.992188-85.335938h-8v-80h208v80h-8c-10.414062 0-19.214844 6.710938-22.527344 16h-30.417968l-2.207032 4.425782c-3.574218 7.132812-10.75 11.574218-18.734375 11.574218h-44.226562c-7.984375 0-15.160157-4.441406-18.726563-11.574218l-2.214844-4.425782h-30.417968c-3.3125-9.289062-12.113282-16-22.527344-16zm328 85.335938c0 5.160156-1.703125 10.265625-4.800781 14.398437l-19.199219 25.601563v18.664062h-96v-18.664062l-19.199219-25.609375c-2.703125-3.597657-4.335937-7.886719-4.710937-12.390625l-.730469-7.335938h-159.367187l.007812-48h19.449219c6.832031 9.976563 18.085937 16 30.4375 16h44.226562c12.351563 0 23.605469-6.023437 30.4375-16h19.449219v32h16v-40c0-4.414062 3.59375-8 8-8h8v64h16v-168c0-4.40625 3.59375-8 8-8s8 3.59375 8 8v144h16v-80c0-4.414062 3.59375-8 8-8s8 3.585938 8 8v80h16v-64c0-4.414062 3.59375-8 8-8s8 3.585938 8 8v64h16v-48c0-2.144531.832031-4.152344 2.34375-5.65625 1.511719-1.511718 3.511719-2.34375 5.648438-2.34375h.007812c4.40625.007813 8 3.59375 8 8zm0 0"/><path d="m160 272.003906h16v16h-16zm0 0"/><path d="m160 304.003906h16v16h-16zm0 0"/><path d="m192 272.003906h16v16h-16zm0 0"/><path d="m192 304.003906h16v16h-16zm0 0"/><path d="m224 272.003906h16v16h-16zm0 0"/><path d="m224 304.003906h16v16h-16zm0 0"/><path d="m256 272.003906h16v16h-16zm0 0"/><path d="m256 304.003906h16v16h-16zm0 0"/><path d="m224 336.003906h48v16h-48zm0 0"/><path d="m288 272.003906h16v16h-16zm0 0"/><path d="m288 304.003906h16v16h-16zm0 0"/><path d="m320 272.003906h16v16h-16zm0 0"/><path d="m320 304.003906h16v16h-16zm0 0"/><path d="m216 32.003906h64v16h-64zm0 0"/><path d="m296 32.003906h16v16h-16zm0 0"/><path d="m184 32.003906h16v16h-16zm0 0"/><path d="m416 160.003906c0-35.289062-28.710938-64-64-64s-64 28.710938-64 64c0 35.289063 28.710938 64 64 64s64-28.710937 64-64zm-16 0c0 7.519532-1.792969 14.625-4.886719 20.96875l-35.113281-25.082031v-43.167969c22.664062 3.832032 40 23.546875 40 47.28125zm-56-47.28125v43.53125l-33.433594 27.863282c-4.152344-7.097657-6.566406-15.320313-6.566406-24.113282 0-23.734375 17.335938-43.449218 40-47.28125zm-23.199219 83.6875 31.574219-26.308594 33.464844 23.902344c-8.6875 8.648438-20.648438 14-33.839844 14-11.910156 0-22.800781-4.382812-31.199219-11.59375zm0 0"/><path d="m128 96.003906h-48v128h48zm-16 112h-16v-96h16zm0 0"/><path d="m144 224.003906h48v-96h-48zm16-80h16v64h-16zm0 0"/><path d="m208 224.003906h48v-64h-48zm16-48h16v32h-16zm0 0"/></svg>