<svg height="496pt" viewBox="0 0 496 496" width="496pt" xmlns="http://www.w3.org/2000/svg"><path d="m496 448v-448h-320v80h-4.894531c-14.152344-19.839844-38.152344-32-63.730469-32-27.101562 0-52.453125 13.710938-66.167969 35.777344l-7.597656 12.222656h66.015625l15.398438 24-15.398438 24h-66.015625l7.589844 12.222656c5.761719 9.273438 13.65625 16.953125 22.800781 22.875v28.902344h16v-20.902344c8.640625 3.132813 17.878906 4.902344 27.375 4.902344 13.273438 0 25.730469-3.246094 36.625-8.847656v40.847656h-120c-4.414062 0-8-3.59375-8-8v-48c0-4.40625 3.585938-8 8-8v-16c-13.230469 0-24 10.769531-24 24v48c0 13.230469 10.769531 24 24 24h8v32h-8c-13.230469 0-24 10.769531-24 24v48c0 13.230469 10.769531 24 24 24h8v32h-8c-13.230469 0-24 10.769531-24 24v48c0 13.230469 10.769531 24 24 24h208c13.230469 0 24-10.769531 24-24v-8h-16v8c0 4.40625-3.585938 8-8 8h-72v-64h72c4.414062 0 8 3.59375 8 8v24zm-430.953125-288h43.328125l25.664062-40-25.664062-40h-43.328125c11.191406-10.105469 26.359375-16 42.328125-16 21.679688 0 41.847656 10.816406 52.648438 28.214844l2.34375 3.785156h213.632812v16h-208v8c0 30.878906-27.191406 56-60.625 56-15.96875 0-31.136719-5.894531-42.328125-16zm326.953125-57.078125 25.703125 17.078125-25.703125 17.078125zm-232 69.285156c4.128906-3.671875 7.816406-7.757812 10.992188-12.207031h53.007812v-16h-44.464844c1.929688-5.105469 3.335938-10.441406 3.992188-16h192.472656v16h-136v72c0 4.40625-3.585938 8-8 8h-72zm-112 67.792969h160v32h-160zm64 112v-64h120c4.414062 0 8 3.59375 8 8v48c0 4.40625-3.585938 8-8 8zm-96-8v-48c0-4.40625 3.585938-8 8-8h72v64h-72c-4.414062 0-8-3.59375-8-8zm32 24h160v32h-160zm96 112h-120c-4.414062 0-8-3.59375-8-8v-48c0-4.40625 3.585938-8 8-8h120zm88-80h-8v-32h8c13.230469 0 24-10.769531 24-24v-48c0-13.230469-10.769531-24-24-24h-8v-32h8c13.230469 0 24-10.769531 24-24v-56h130.414062l60.195313-40-60.195313-40h-194.414062v-64h288v416h-224v-8c0-13.230469-10.769531-24-24-24zm0 0"/><path d="m208 432h16v16h-16zm0 0"/><path d="m176 432h16v16h-16zm0 0"/><path d="m32 432h16v32h-16zm0 0"/><path d="m64 432h16v32h-16zm0 0"/><path d="m208 176h16v16h-16zm0 0"/><path d="m176 176h16v16h-16zm0 0"/><path d="m32 176h16v32h-16zm0 0"/><path d="m32 304h16v16h-16zm0 0"/><path d="m64 304h16v16h-16zm0 0"/><path d="m208 304h16v32h-16zm0 0"/><path d="m176 304h16v32h-16zm0 0"/><path d="m208 32h16v16h-16zm0 0"/><path d="m240 32h224v16h-224zm0 0"/><path d="m416 64h48v16h-48zm0 0"/><path d="m272 176h192v16h-192zm0 0"/><path d="m304 208h160v16h-160zm0 0"/><path d="m272 208h16v16h-16zm0 0"/><path d="m272 240h192v16h-192zm0 0"/><path d="m448 272h16v16h-16zm0 0"/><path d="m272 272h160v16h-160zm0 0"/><path d="m464 304h-192v112h192zm-16 96h-160v-80h160zm0 0"/><path d="m360 368h16v16h-16zm0 0"/><path d="m392 368h16v16h-16zm0 0"/><path d="m328 368h16v16h-16zm0 0"/><path d="m304 336h128v16h-128zm0 0"/></svg>