<svg height="496pt" viewBox="0 0 496 496" width="496pt" xmlns="http://www.w3.org/2000/svg"><path d="m384 384v112h8c57.34375 0 104-46.65625 104-104v-8zm16 95.640625v-79.640625h79.640625c-3.816406 42.160156-37.480469 75.832031-79.640625 79.640625zm0 0"/><path d="m464 360c0-49.070312-34.207031-90.214844-80-101.097656v-10.902344c0-22.054688-17.945312-40-40-40h-56v-208h-288v352c0 17.648438 14.351562 32 32 32h64v80h272v-96h96zm-404.449219 8c2.753907-4.726562 4.449219-10.144531 4.449219-16v-112c0-8.824219 7.175781-16 16-16s16 7.175781 16 16v128zm52.449219 80v-208c0-5.855469-1.695312-11.273438-4.449219-16h148.449219v-16h-176c-17.648438 0-32 14.351562-32 32v112c0 8.824219-7.175781 16-16 16s-16-7.175781-16-16v-336h256v208h72c13.230469 0 24 10.769531 24 24v8.40625c-2.648438-.207031-5.296875-.40625-8-.40625-57.34375 0-104 46.65625-104 104 0 37.0625 19.550781 69.574219 48.832031 88zm240-.359375c-44.792969-4.054687-80-41.808594-80-87.640625 0-21.382812 7.679688-41 20.414062-56.273438l59.585938 59.585938zm11.3125-95.640625-59.585938-59.585938c15.265626-12.726562 34.882813-20.414062 56.273438-20.414062 45.832031 0 83.585938 35.207031 87.640625 80zm0 0"/><path d="m256 32h-48v160h48zm-16 144h-16v-128h16zm0 0"/><path d="m144 192h48v-128h-48zm16-112h16v96h-16zm0 0"/><path d="m80 192h48v-96h-48zm16-80h16v64h-16zm0 0"/><path d="m32 32h16v16h-16zm0 0"/><path d="m64 32h48v16h-48zm0 0"/><path d="m64 64h48v16h-48zm0 0"/><path d="m32 64h16v16h-16zm0 0"/><path d="m128 240h16v16h-16zm0 0"/><path d="m160 240h88v16h-88zm0 0"/><path d="m128 272h16v16h-16zm0 0"/><path d="m160 272h88v16h-88zm0 0"/><path d="m128 304h16v16h-16zm0 0"/><path d="m160 304h88v16h-88zm0 0"/><path d="m176 336c-26.472656 0-48 21.527344-48 48s21.527344 48 48 48 48-21.527344 48-48-21.527344-48-48-48zm0 80c-17.648438 0-32-14.351562-32-32s14.351562-32 32-32 32 14.351562 32 32-14.351562 32-32 32zm0 0"/></svg>