<svg height="495pt" viewBox="0 0 495.99803 495" width="495pt" xmlns="http://www.w3.org/2000/svg"><path d="m360 176.472656c-8.824219 0-16-7.179687-16-16h-16c0 14.863282 10.230469 27.285156 24 30.863282v17.136718h16v-17.136718c13.769531-3.578126 24-16 24-30.863282 0-17.648437-14.351562-32-32-32-8.824219 0-16-7.179687-16-16 0-8.824218 7.175781-16 16-16s16 7.175782 16 16h16c0-14.867187-10.230469-27.289062-24-30.867187v-17.132813h-16v17.132813c-13.769531 3.578125-24 16-24 30.867187 0 17.644532 14.351562 32 32 32 8.824219 0 16 7.175782 16 16 0 8.820313-7.175781 16-16 16zm0 0"/><path d="m360 240.472656c57.34375 0 104-46.65625 104-104 0-57.347656-46.65625-104-104-104s-104 46.652344-104 104c0 57.34375 46.65625 104 104 104zm0-192c48.519531 0 88 39.476563 88 88 0 48.519532-39.480469 88-88 88s-88-39.480468-88-88c0-48.523437 39.480469-88 88-88zm0 0"/><path d="m456.167969 232.640625c29.945312-29.945313 44.0625-71.425781 38.71875-113.808594-7.664063-60.792969-57.40625-110.160156-118.285157-117.378906-38.304687-4.519531-75.839843 7.1875-104.210937 31.019531h-256.390625c-8.824219 0-16 7.175782-16 16v16c0 8.820313 7.175781 16 16 16v224c-8.824219 0-16 7.175782-16 16v16c0 8.820313 7.175781 16 16 16h93.761719l-24.007813 96h48.492188l23.992187-96h1.761719v96h48v-96h1.761719l23.992187 96h48.492188l-24.007813-96h77.761719v-16h32v-16h-32v-16h48v152c0 13.230469-10.769531 24-24 24s-24-10.769531-24-24v-88.386718h-16v88.386718c0 22.054688 17.945312 40 40 40s40-17.945312 40-40v-168h-16v-18.226562c27.070312-4.816406 52.191406-17.640625 72.167969-37.605469zm-440.167969-184.167969h240.296875c-4.242187 5-8.167969 10.335938-11.695313 16h-228.601562zm105.753906 384h-15.507812l19.992187-80h15.515625zm70.246094 0h-16v-80h16zm69.753906 0h-15.507812l-20.007813-80h15.515625zm58.246094-96h-304v-16h304zm0-48v16h-288v-224h216.054688l5.707031-.042968 2.285156-3.957032c24.082031-41.601562 70.617187-64.816406 118.65625-59.128906 53.6875 6.359375 97.554687 49.886719 104.304687 103.488281 4.71875 37.4375-7.726562 74.0625-34.160156 100.496094-26.433594 26.429687-63.070312 38.878906-100.496094 34.160156-53.414062-6.730469-96.910156-50.417969-103.441406-103.875-2.191406-17.992187-.503906-35.664062 5.019532-52.535156l-15.203126-4.976563c-6.253906 19.121094-8.167968 39.121094-5.6875 59.457032 7.136719 58.464844 53.328126 106.519531 110.960938 116.710937v18.203125zm48 0h-16v-16.257812c2.664062.152344 5.320312.246094 7.960938.246094 2.695312 0 5.359374-.230469 8.039062-.390626zm0 0"/><path d="m48 288.472656h48v-176h-48zm16-160h16v144h-16zm0 0"/><path d="m112 288.472656h48v-144h-48zm16-128h16v112h-16zm0 0"/><path d="m176 288.472656h48v-112h-48zm16-96h16v80h-16zm0 0"/></svg>