<svg height="496pt" viewBox="0 0 496 496" width="496pt" xmlns="http://www.w3.org/2000/svg"><path d="m496 288v-168h-58.382812l-221.617188 145.191406v-52.953125l248.855469-168.335937-16.296875 41.152344 14.875 5.890624 29.6875-74.945312h-85.121094v16h45.894531l-237.894531 160.929688v-112.929688h-8c-114.6875 0-208 93.3125-208 208s93.3125 208 208 208c25.710938 0 50.6875-4.640625 74.398438-13.734375 3.867187 8.09375 12.058593 13.734375 21.601562 13.734375h144c13.230469 0 24-10.769531 24-24v-64c0-13.230469-10.769531-24-24-24h-55.449219c15.371094-29.519531 23.449219-62.425781 23.449219-96zm-16-16h-32v-136h32zm-176 0v-45.335938l32-20.96875v66.304688zm-69.191406 0 53.191406-34.847656v34.847656zm-34.808594-175.832031v175.832031h-183.289062c7.945312-95.777344 86.457031-171.847656 183.289062-175.832031zm256 311.832031v64c0 4.40625-3.59375 8-8 8h-144c-4.40625 0-8-3.59375-8-8v-64c0-4.40625 3.59375-8 8-8h24v-25.046875l37.574219 25.046875h82.425781c4.40625 0 8 3.59375 8 8zm-81.800781-24h-3.773438l-58.425781-38.953125v38.953125h-8c-13.230469 0-24 10.769531-24 24v57.976562c-22.855469 9.269532-47.046875 14.023438-72 14.023438-105.863281 0-192-86.136719-192-192h368v-16h-32v-76.785156l32-20.96875v81.753906h16v-92.230469l32-20.96875v129.199219h-32.527344l.335938 8.320312c.09375 2.542969.191406 5.105469.191406 7.679688 0 33.847656-8.96875 66.910156-25.800781 96zm0 0"/><path d="m24 120c13.230469 0 24-10.769531 24-24 0-4.191406-1.175781-8.070312-3.070312-11.503906l34.039062-38.289063c2.792969 1.136719 5.832031 1.792969 9.03125 1.792969 7.664062 0 14.425781-3.679688 18.824219-9.289062l29.222656 9.746093c.242187 13.015625 10.875 23.542969 23.953125 23.542969 13.230469 0 24-10.769531 24-24 0-3.695312-.902344-7.152344-2.40625-10.28125l21.71875-21.71875h124.6875v-16h-131.3125l-26.40625 26.40625c-3.128906-1.503906-6.585938-2.40625-10.28125-2.40625-7.664062 0-14.433594 3.679688-18.824219 9.296875l-29.222656-9.746094c-.242187-13.023437-10.875-23.550781-23.953125-23.550781-13.230469 0-24 10.769531-24 24 0 4.191406 1.175781 8.070312 3.070312 11.503906l-34.039062 38.289063c-2.792969-1.136719-5.832031-1.792969-9.03125-1.792969-13.230469 0-24 10.769531-24 24s10.769531 24 24 24zm136-80c4.40625 0 8 3.59375 8 8s-3.59375 8-8 8-8-3.59375-8-8 3.59375-8 8-8zm-72-24c4.40625 0 8 3.59375 8 8s-3.59375 8-8 8-8-3.59375-8-8 3.59375-8 8-8zm-64 72c4.40625 0 8 3.59375 8 8s-3.59375 8-8 8-8-3.59375-8-8 3.59375-8 8-8zm0 0"/><path d="m224 32h72v16h-72zm0 0"/><path d="m312 32h16v16h-16zm0 0"/><path d="m312 448h96v16h-96zm0 0"/><path d="m424 448h16v16h-16zm0 0"/><path d="m312 416h128v16h-128zm0 0"/></svg>