<svg height="496pt" viewBox="0 0 496 496" width="496pt" xmlns="http://www.w3.org/2000/svg"><path d="m192 0h-192v144h192zm-16 128h-160v-112h160zm0 0"/><path d="m32 32h16v16h-16zm0 0"/><path d="m64 32h96v16h-96zm0 0"/><path d="m32 64h16v16h-16zm0 0"/><path d="m64 64h96v16h-96zm0 0"/><path d="m32 96h16v16h-16zm0 0"/><path d="m64 96h96v16h-96zm0 0"/><path d="m496 80v-80h-144v32h-27.839844l-65.398437 81.753906c-3.441407-1.105468-7.050781-1.753906-10.761719-1.753906-12.769531 0-24.566406 6.929688-30.785156 18.070312l-75.101563 134.554688-18.058593-24.625h-28.054688v-32h-96v80h96v-32h19.945312l17.589844 23.992188-98.109375 175.785156c-2.242187 4.023437-3.425781 8.582031-3.425781 13.183594 0 14.902343 12.136719 27.039062 27.039062 27.039062h377.921876c14.910156 0 27.039062-12.136719 27.039062-27.046875 0-4.601563-1.183594-9.152344-3.433594-13.175781l-110.550781-198.074219 37.082031-33.703125h12.902344v32h96v-80h-96v32h-19.097656l-38.894532 35.359375-63.230468-113.28125c-1.679688-3.007813-3.792969-5.679687-6.183594-8.015625l59.246094-74.0625h20.160156v32zm-416 192h-64v-48h64zm336-80h64v48h-64zm-94.183594 48h-147.632812l35.71875-64h76.1875zm-127.359375 96h180.941407l35.722656 64h-326.242188l35.722656-64h54.007813l26.933594 36.726562 12.90625-9.460937zm-64.921875-16 14.410156-25.816406 18.933594 25.816406zm318.464844 148.960938c0 6.085937-4.953125 11.039062-11.039062 11.039062h-377.921876c-6.085937 0-11.039062-4.960938-11.039062-11.046875 0-1.882813.488281-3.746094 1.398438-5.386719l26.554687-47.566406h344.09375l26.554687 47.566406c.910157 1.640625 1.398438 3.511719 1.398438 5.394532zm-81.535156-148.960938h-183.746094l-30.199219-41.183594 12.738281-22.816406h162.847657l-37.488281 34.078125 10.765624 11.832031 36.480469-33.167968zm-89.304688-160h-58.320312l12.351562-22.128906c3.394532-6.085938 9.832032-9.871094 16.808594-9.871094s13.414062 3.785156 16.816406 9.871094zm90.839844-144h112v48h-112zm0 0"/><path d="m432 208h32v16h-32zm0 0"/><path d="m384 32h80v16h-80zm0 0"/><path d="m32 240h32v16h-32zm0 0"/></svg>