<svg height="496pt" viewBox="0 0 496 496" width="496pt" xmlns="http://www.w3.org/2000/svg"><path d="m48 448h16v16h-16zm0 0"/><path d="m80 448h16v16h-16zm0 0"/><path d="m112 448h16v16h-16zm0 0"/><path d="m384 448h64v16h-64zm0 0"/><path d="m480 416v-264c0-22.054688-17.945312-40-40-40h-80v-88h-64v79.886719c-5.222656-1.742188-10.542969-3.253907-16-4.429688v-99.457031h-64v99.457031c-5.457031 1.175781-10.777344 2.6875-16 4.429688v-79.886719h-64v88h-80c-22.054688 0-40 17.945312-40 40v264h-16v40c0 22.054688 17.945312 40 40 40h416c22.054688 0 40-17.945312 40-40v-40zm-40-288c13.230469 0 24 10.769531 24 24v264h-16v-256c0-8.824219-7.175781-16-16-16h-72v-16zm-192-16c16.511719 0 32.28125 3.105469 46.9375 8.519531l-4.28125 5.992188c-4.242188 5.945312-11.136719 9.488281-18.433594 9.488281h-17.574218c-21.3125 0-38.648438 17.335938-38.648438 38.648438 0 7.910156-4.207031 15.351562-11 19.421874l-17.832031 10.707032c-3.519531 2.101562-7.550781 3.222656-11.664063 3.222656h-41.398437c-5.226563 0-10.296875-.910156-15.167969-2.632812 17.941406-54.152344 68.964844-93.367188 129.0625-93.367188zm86.113281 241.160156c-5.609375-19.136718-23.296875-33.160156-44.226562-33.160156-7.984375 0-15.167969-4.441406-18.734375-11.574219l-8-16c-6.304688-12.601562-18.96875-20.425781-33.039063-20.425781h-44.21875c-7.964843 0-15.167969-4.457031-18.765625-11.625-6.296875-12.566406-18.960937-20.375-33.015625-20.375-7.570312 0-14.9375 1.527344-21.914062 4.175781.226562-7.976562 1.007812-15.808593 2.554687-23.382812 6.222656 2.070312 12.6875 3.207031 19.359375 3.207031h41.398438c7.007812 0 13.878906-1.902344 19.886719-5.503906l17.832031-10.703125c11.585937-6.945313 18.769531-19.640625 18.769531-33.144531 0-12.488282 10.160156-22.648438 22.648438-22.648438h17.574218c12.457032 0 24.210938-6.046875 31.449219-16.183594l6.257813-8.753906c15.941406 8.203125 30.054687 19.402344 41.582031 32.9375h-14.550781c-28.375 0-55.855469 8.320312-79.472657 24.0625-10.953125 7.296875-17.488281 19.511719-17.488281 32.671875 0 21.648437 17.617188 39.265625 39.265625 39.265625h2.191406c10.03125 0 18.894531 6.390625 22.078125 15.910156l1.753906 5.242188c5.351563 16.054687 20.320313 26.847656 37.246094 26.847656h29.257813c-8.695313 19.144531-21.609375 35.976562-37.679688 49.160156zm-14.394531 10.175782c-20.847656 13.015624-45.382812 20.664062-71.71875 20.664062-70.464844 0-128.550781-53.863281-135.320312-122.574219 6.609374-3.496093 13.90625-5.425781 21.433593-5.425781 7.976563 0 15.152344 4.425781 18.71875 11.550781 6.335938 12.617188 19 20.449219 33.054688 20.449219h44.21875c7.984375 0 15.167969 4.441406 18.734375 11.574219l8 16c6.3125 12.601562 18.976562 20.425781 33.046875 20.425781 15.65625 0 28.410156 12.046875 29.832031 27.335938zm58.257812-75.335938h-35.441406c-10.03125 0-18.894531-6.390625-22.078125-15.910156l-1.753906-5.242188c-5.34375-16.054687-20.3125-26.847656-37.238281-26.847656h-2.191406c-12.832032 0-23.273438-10.441406-23.273438-23.265625 0-7.796875 3.871094-15.03125 10.359375-19.359375 20.976563-13.984375 45.382813-21.375 70.59375-21.375h26.214844c13.121093 20.910156 20.832031 45.542969 20.832031 72 0 13.921875-2.121094 27.34375-6.023438 40zm-65.976562-248h32v90.28125c-9.71875-7.945312-20.503906-14.59375-32-19.960938zm-80-24h32v80.855469c-5.265625-.550781-10.59375-.855469-16-.855469s-10.734375.304688-16 .855469zm-48 24v70.320312c-11.496094 5.367188-22.28125 12.015626-32 19.960938v-90.28125zm-152 112c0-13.230469 10.769531-24 24-24h80v16h-72c-8.824219 0-16 7.175781-16 16v256h-16zm448 304c0 13.230469-10.769531 24-24 24h-416c-13.230469 0-24-10.769531-24-24v-24h164.816406c11.503906 10.34375 26.214844 16 41.816406 16h50.75c15.59375 0 30.3125-5.65625 41.816407-16h100.800781v-16h-107.3125l-2.34375 2.34375c-8.808594 8.808594-20.511719 13.65625-32.96875 13.65625h-50.75c-12.457031 0-24.167969-4.847656-32.96875-13.65625l-2.34375-2.34375h-123.3125v-256h60.296875c-17.746094 24.863281-28.296875 55.191406-28.296875 88 0 83.816406 68.183594 152 152 152s152-68.183594 152-152c0-32.808594-10.550781-63.136719-28.296875-88h60.296875v272h48zm0 0"/></svg>