<svg height="496pt" viewBox="0 0 496 496" width="496pt" xmlns="http://www.w3.org/2000/svg"><path d="m240 0h16v32h-16zm0 0"/><path d="m146.183594 45.492188 11.3125-11.3125 22.625 22.632812-11.316406 11.308594zm0 0"/><path d="m315.875 56.804688 22.625-22.625 11.316406 11.3125-22.628906 22.628906zm0 0"/><path d="m464 208v-80h-128.425781c-2.023438-22.070312-12.292969-42.753906-28.972657-57.65625-18.664062-16.671875-43.816406-24.589844-68.832031-21.769531-39.167969 4.433593-71.503906 35.953125-76.890625 74.945312-.207031 1.496094-.277344 2.984375-.40625 4.480469h-128.472656v80h-32v232c0 13.230469 10.769531 24 24 24h184.808594c3.71875 18.230469 19.871094 32 39.191406 32s35.480469-13.769531 39.191406-32h184.808594c13.230469 0 24-10.769531 24-24v-232zm-287.289062-82.28125c4.410156-31.855469 30.832031-57.613281 62.839843-61.238281 20.90625-2.359375 40.890625 3.960937 56.386719 17.800781 15.285156 13.65625 24.0625 33.230469 24.0625 53.71875 0 15.167969-4.695312 29.679688-13.566406 41.96875-5.027344 6.953125-9.042969 14.351562-12.082032 22.03125h-22.351562v-48h8c13.230469 0 24-10.769531 24-24s-10.769531-24-24-24-24 10.769531-24 24v8h-16v-8c0-13.230469-10.769531-24-24-24s-24 10.769531-24 24 10.769531 24 24 24h8v48h-22.574219c-3.089843-7.832031-7.160156-15.40625-12.226562-22.550781-10.597657-14.929688-15.03125-33.304688-12.488281-51.730469zm71.289062 154.28125c-19.3125 0-35.472656-13.769531-39.191406-32h78.382812c-3.71875 18.230469-19.878906 32-39.191406 32zm-71.839844-93.289062c4.03125 5.6875 7.34375 11.664062 9.894532 17.839843-6.0625 4.359375-10.054688 11.425781-10.054688 19.449219 0 10.574219 6.921875 19.472656 16.433594 22.664062.382812 3.199219 1.023437 6.328126 1.925781 9.335938h-114.359375v-80h89.761719c1.894531 3.6875 3.964843 7.289062 6.398437 10.710938zm119.839844 45.289062h-96c-4.414062 0-8-3.59375-8-8s3.585938-8 8-8h96c4.414062 0 8 3.59375 8 8s-3.585938 8-8 8zm-72-96h-8c-4.414062 0-8-3.59375-8-8s3.585938-8 8-8 8 3.59375 8 8zm32 64h-16v-48h16zm16-64v-8c0-4.40625 3.585938-8 8-8s8 3.59375 8 8-3.585938 8-8 8zm-224 8h112.480469c.496093 5.441406 1.488281 10.785156 2.976562 16h-99.457031v112h138.113281c8.679688 12.40625 22.246094 21.105469 37.886719 23.359375v120.640625h-192zm432 296c0 4.40625-3.585938 8-8 8h-200v8c0 13.230469-10.769531 24-24 24s-24-10.769531-24-24v-8h-200c-4.414062 0-8-3.59375-8-8v-216h16v208h432v-192h-16v176h-192v-120.640625c24.921875-3.589844 44.566406-23.589844 47.566406-48.703125 9.511719-3.183594 16.433594-12.082031 16.433594-22.65625 0-8.097656-4.054688-15.230469-10.207031-19.585938 2.480469-5.925781 5.679687-11.652343 9.605469-17.078124 9.289062-12.847657 14.792968-27.695313 16.210937-43.335938h112.390625v80h32zm0 0"/><path d="m64 288h120v16h-120zm0 0"/><path d="m64 320h160v16h-160zm0 0"/><path d="m64 352h128v16h-128zm0 0"/><path d="m208 352h16v16h-16zm0 0"/><path d="m352 160h80v16h-80zm0 0"/><path d="m384 368h48v-112h-48zm16-96h16v80h-16zm0 0"/><path d="m320 368h48v-80h-48zm16-64h16v48h-16zm0 0"/><path d="m352 192h80v16h-80zm0 0"/><path d="m336 224h96v16h-96zm0 0"/></svg>