<svg height="496pt" viewBox="0 0 496 496.064" width="496pt" xmlns="http://www.w3.org/2000/svg"><path d="m456.03125 322.359375v-10.359375c0-13.230469-10.765625-24-24-24v-24c0-4.414062 3.59375-8 8-8h24c17.648438 0 32-14.351562 32-32s-14.351562-32-32-32h-144v-128h-48v128h-16v-80h-48v80h-16v-64h-48v64h-16v-128h-48v128h-16v-80h-48v80h-16v112h16v22.28125l20.761719 5.078125c3.046875 11.328125 7.558593 22.183594 13.453125 32.410156l-11.101563 18.300781 42.816407 42.824219 18.304687-11.109375c10.222656 5.894532 21.085937 10.40625 32.40625 13.453125l5.082031 20.761719h60.558594l5.078125-20.769531c11.320313-3.046875 22.183594-7.550781 32.410156-13.453125l18.304688 11.109375 42.816406-42.824219-11.105469-18.300781c5.894532-10.21875 10.40625-21.082031 13.457032-32.410157l20.757812-5.070312v-22.28125h16v-80h-16v64h-304v-80h448c8.824219 0 16 7.175781 16 16s-7.175781 16-16 16h-24c-13.230469 0-24 10.769531-24 24v24c-13.230469 0-24 10.769531-24 24v10.359375c-23.101562 6.90625-40 28.328125-40 53.640625v39.503906c0 40.800782 30.527344 75.375 71.007812 80.441406l.992188.117188.992188-.125c40.480468-5.066406 71.007812-39.640625 71.007812-80.433594v-39.503906c0-25.3125-16.894531-46.734375-40-53.640625zm-152-8.640625-18.046875 4.417969-1.105469 4.816406c-2.976562 12.933594-8.085937 25.246094-15.191406 36.582031l-2.617188 4.175782 9.664063 15.921874-25.0625 25.070313-15.910156-9.664063-4.175781 2.617188c-11.347657 7.113281-23.664063 12.214844-36.59375 15.183594l-4.808594 1.105468-4.429688 18.054688h-35.441406l-4.417969-18.054688-4.804687-1.105468c-12.9375-2.96875-25.25-8.078125-36.59375-15.183594l-4.175782-2.617188-15.914062 9.664063-25.0625-25.070313 9.664062-15.921874-2.617187-4.175782c-7.101563-11.335937-12.214844-23.648437-15.191406-36.582031l-1.101563-4.816406-18.066406-4.417969v-9.71875h32.410156c4.109375 53.609375 48.941406 96 103.589844 96s99.480469-42.390625 103.59375-96h32.40625zm-136 38.28125c28.152344 0 51.457031-20.910156 55.359375-48h32.234375c-4.058594 44.785156-41.769531 80-87.59375 80s-83.535156-35.214844-87.589844-80h32.230469c3.902344 27.089844 27.207031 48 55.359375 48zm-39.191406-48h78.382812c-3.71875 18.230469-19.871094 32-39.191406 32s-35.472656-13.769531-39.191406-32zm159.191406-224h16v112h-16zm-64 48h16v64h-16zm-64 16h16v48h-16zm-64-64h16v112h-16zm-64 48h16v64h-16zm376 184c0-4.414062 3.59375-8 8-8h16c4.410156 0 8 3.585938 8 8v8h-32zm16 167.929688c-31.832031-4.472657-55.726562-31.738282-55.976562-63.929688h111.953124c-.246093 32.191406-24.144531 59.464844-55.976562 63.929688zm8-79.929688h-16v-24c0-4.414062 3.59375-8 8-8 4.410156 0 8 3.585938 8 8zm48 0h-32v-24c0-13.230469-10.765625-24-24-24-13.230469 0-24 10.769531-24 24v24h-32v-24c0-22.054688 17.945312-40 40-40h32c22.058594 0 40 17.945312 40 40zm0 0"/><path d="m192.03125 224h16v16h-16zm0 0"/><path d="m192.03125 256h16v16h-16zm0 0"/><path d="m208.03125 240h16v16h-16zm0 0"/><path d="m176.03125 240h16v16h-16zm0 0"/><path d="m256.03125 224h16v16h-16zm0 0"/><path d="m256.03125 256h16v16h-16zm0 0"/><path d="m272.03125 240h16v16h-16zm0 0"/><path d="m240.03125 240h16v16h-16zm0 0"/><path d="m128.03125 224h16v16h-16zm0 0"/><path d="m128.03125 256h16v16h-16zm0 0"/><path d="m144.03125 240h16v16h-16zm0 0"/><path d="m112.03125 240h16v16h-16zm0 0"/><path d="m64.03125 224h16v16h-16zm0 0"/><path d="m64.03125 256h16v16h-16zm0 0"/><path d="m80.03125 240h16v16h-16zm0 0"/><path d="m48.03125 240h16v16h-16zm0 0"/><path d="m40.03125 96c13.234375 0 24-10.769531 24-24 0-2.488281-.488281-4.847656-1.199219-7.113281l27.902344-20.925781c3.816406 2.542968 8.386719 4.039062 13.296875 4.039062 3.695312 0 7.152344-.902344 10.28125-2.40625l32.121094 32.117188c-1.496094 3.136718-2.402344 6.59375-2.402344 10.289062 0 13.230469 10.769531 24 24 24 12.449219 0 22.59375-9.558594 23.769531-21.695312l20.238281-5.066407c4.304688 6.472657 11.648438 10.761719 19.992188 10.761719 13.234375 0 24-10.769531 24-24 0-2.488281-.488281-4.839844-1.191406-7.105469l27.902344-20.933593c3.808593 2.542968 8.378906 4.039062 13.289062 4.039062 13.234375 0 24-10.769531 24-24s-10.765625-24-24-24c-13.230469 0-24 10.769531-24 24 0 2.488281.488281 4.839844 1.191406 7.105469l-27.902344 20.933593c-3.808593-2.542968-8.375-4.039062-13.289062-4.039062-12.445312 0-22.582031 9.550781-23.765625 21.695312l-20.25 5.066407c-4.296875-6.472657-11.640625-10.761719-19.984375-10.761719-3.695312 0-7.152344.902344-10.277344 2.40625l-32.121094-32.117188c1.496094-3.136718 2.398438-6.59375 2.398438-10.289062 0-13.230469-10.765625-24-24-24-13.230469 0-24 10.769531-24 24 0 2.488281.488281 4.839844 1.191406 7.105469l-27.910156 20.925781c-3.808594-2.535156-8.367188-4.03125-13.28125-4.03125-13.230469 0-24 10.769531-24 24s10.769531 24 24 24zm256-80c4.410156 0 8 3.585938 8 8s-3.589844 8-8 8c-4.40625 0-8-3.585938-8-8s3.59375-8 8-8zm-64 48c4.410156 0 8 3.585938 8 8s-3.589844 8-8 8c-4.40625 0-8-3.585938-8-8s3.59375-8 8-8zm-64 16c4.410156 0 8 3.585938 8 8s-3.589844 8-8 8c-4.40625 0-8-3.585938-8-8s3.59375-8 8-8zm-64-64c4.410156 0 8 3.585938 8 8s-3.589844 8-8 8c-4.40625 0-8-3.585938-8-8s3.59375-8 8-8zm-64 48c4.410156 0 8 3.585938 8 8s-3.589844 8-8 8c-4.40625 0-8-3.585938-8-8s3.59375-8 8-8zm0 0"/></svg>