<svg height="497.2pt" viewBox="0 0 497.2 497.2" width="497.2pt" xmlns="http://www.w3.org/2000/svg"><path d="m273.199219 497.199219h8c119.105469 0 216-96.894531 216-216v-8h-224zm16-208h191.839843c-4.101562 103.929687-87.910156 187.738281-191.839843 191.839843zm0 0"/><path d="m154.792969 0-7.664063 2.296875c-69.785156 20.910156-123.921875 75.054687-144.832031 144.832031l-2.296875 7.664063 221.136719 66.335937zm-10.6875 20.0625 53.167969 177.203125-177.203126-53.167969c20.042969-58.394531 65.632813-103.984375 124.035157-124.035156zm0 0"/><path d="m388.808594 1.199219-36.921875 58.015625c-30.558594-16.582032-65.542969-26.015625-102.6875-26.015625-21.632813 0-38.519531 2.417969-58.296875 8.335937l-7.519532 2.257813 54.28125 193.863281-193.871093-54.28125-2.257813 7.519531c-5.917968 19.785157-8.335937 36.671875-8.335937 58.304688 0 88.304687 53.289062 164.351562 129.367187 197.808593l-21.757812 34.191407h-11.609375v-16h-16v16h-16v-32h-16v32h-16v-16h-16v16h-16v-48h-16v48h-16v16h148.394531l28.132812-44.207031c22.386719 7.871093 46.425782 12.207031 71.472657 12.207031h8v-208h208v-8c0-76.238281-39.742188-143.335938-99.558594-181.785157l31.953125-50.214843h3.605469v16h16v-16h16v32h16v-32h16v48h16v-48h16v-16zm-219.375 316.457031-72.5625-102.800781 63.5625 17.800781 38.894531 55.105469zm41.382812-41.382812-25.960937-36.777344 49.015625 13.726562zm-138.359375-68.257813 85.496094 121.121094-29.890625 29.886719-78.816406-111.640626c.121094-16.285156 1.738281-29.78125 5.507812-44.320312zm29.878907 176.726563c-26.777344-28.980469-45.121094-65.847657-51.046876-106.710938l65.277344 92.472656zm84.222656 54.363281 21.394531-33.609375-13.503906-8.59375-23.183594 36.425781c-21.355469-9.070313-40.824219-21.734375-57.625-37.265625l127.558594-127.550781v180.527343c-19.015625-.75-37.335938-4.214843-54.640625-9.933593zm262.480468-197.90625h-193.765624l-52.21875-186.457031c15.097656-3.902344 28.992187-5.542969 46.144531-5.542969 33.992187 0 66.007812 8.542969 94.074219 23.5625l-12.816407 20.140625 13.503907 8.59375 13.109374-20.609375c53.257813 34.257812 89.3125 93.058593 91.96875 160.3125zm0 0"/><path d="m361.199219 337.199219c4.417969 0 8 3.585937 8 8h16c0-10.414063-6.710938-19.214844-16-22.527344v-17.472656h-16v17.472656c-9.289063 3.3125-16 12.113281-16 22.527344 0 13.234375 10.769531 24 24 24 4.417969 0 8 3.585937 8 8 0 4.417969-3.582031 8-8 8-4.414063 0-8-3.582031-8-8h-16c0 10.417969 6.710937 19.214843 16 22.527343v17.472657h16v-17.472657c9.289062-3.3125 16-12.109374 16-22.527343 0-13.230469-10.765625-24-24-24-4.414063 0-8-3.582031-8-8 0-4.414063 3.585937-8 8-8zm0 0"/></svg>