<svg height="496pt" viewBox="0 0 496 496" width="496pt" xmlns="http://www.w3.org/2000/svg"><path d="m216 224c0 4.417969-3.582031 8-8 8s-8-3.582031-8-8 3.582031-8 8-8 8 3.582031 8 8zm0 0"/><path d="m168 304c17.648438 0 32-14.351562 32-32h-16c0 8.824219-7.175781 16-16 16s-16-7.175781-16-16h-16c0 17.648438 14.351562 32 32 32zm0 0"/><path d="m288 336v-16h208v-320h-384v77.953125c-38.015625 20.152344-64 60.101563-64 106.046875v152h72v10.230469l-81.703125 27.25c-22.914063 7.625-38.296875 28.976562-38.296875 53.113281v69.40625h336v-69.40625c0-24.144531-15.382812-45.496094-38.289062-53.121094l-81.710938-27.242187v-10.230469zm-88 12.6875-32 32-32-32v-10.800781c9.9375 3.898437 20.703125 6.113281 32 6.113281s22.0625-2.214844 32-6.113281zm-72-116.6875c4.414062 0 8-3.585938 8-8 0-2.320312-1.023438-4.367188-2.601562-5.832031 31.175781-7.984375 59.808593-24.070313 83.167968-47.425781l8.128906-8.125c9.679688 8.640624 15.3125 21.023437 15.3125 34.222656v59.160156c0 39.703125-32.304687 72-72 72-39.695312 0-72-32.296875-72-72v-32.167969c8.34375-.359375 16.527344-1.464843 24.625-2.929687-.410156.953125-.632812 2-.632812 3.097656 0 4.414062 3.585938 8 8 8zm100.207031 88c13.519531-12.726562 23-29.632812 26.359375-48.664062 6.488282-1.078126 12.394532-3.726563 17.425782-7.542969v56.207031zm27.792969-110.527344c9.289062 3.3125 16 12.113282 16 22.527344s-6.710938 19.214844-16 22.527344zm30.808594-41.472656h17.191406v104h-16v-88c0-5.441406-.488281-10.753906-1.191406-16zm129.191406-45.703125 32-51.199219v200.902344h-32zm-16 149.703125h-32v-144h32zm-48 0h-32v-108.257812l32-26.664063zm-224-256h352v288h-192v-16h176v-240h-20.433594l-40 64h-46.460937l-48 40h-25.570313c-14.054687-50.65625-60.464844-88-115.535156-88-14.039062 0-27.464844 2.550781-40 7zm40 64c57.34375 0 104 46.65625 104 104v16.207031c-4.734375-3.582031-10.207031-6.230469-16.246094-7.421875-1.257812-19.167968-11.195312-36.6875-27.3125-47.441406l-5.457031-3.640625-17.726563 17.730469c-29.425781 29.421875-67.96875 46.429687-109.257812 48.375v-31.808594h-16v16.808594c-5.945312 1.214844-11.328125 3.855468-16 7.390625v-16.199219c0-57.34375 46.65625-104 104-104zm-104 152c0-10.414062 6.710938-19.214844 16-22.527344v45.046875c-9.289062-3.304687-16-12.105469-16-22.519531zm0 31.726562c5.023438 3.792969 10.910156 6.464844 17.425781 7.578126 3.359375 19.046874 12.839844 35.960937 26.367188 48.695312h-43.792969zm61.839844 97.425782 30.847656 30.847656-26.113281 26.113281-22.652344-50.984375zm32.9375 86.847656h18.4375l5.335937 32h-29.109375zm20.277344-16h-22.109376l-5.882812-11.753906 16.9375-16.933594 16.9375 16.933594zm-163.054688-5.40625c0-17.242188 10.992188-32.496094 27.351562-37.945312l49.320313-16.441407 32.753906 73.679688 13.71875-13.71875 4.535157 9.078125-6.457032 38.753906h-57.222656v-3.3125l-7.03125-7.03125c-5.695312-5.703125-8.96875-13.59375-8.96875-21.65625s3.273438-15.953125 8.96875-21.65625l7.03125-7.03125v-19.3125h-16v12.6875l-2.34375 2.34375c-8.679688 8.679688-13.65625 20.695312-13.65625 32.96875 0 11.839844 4.664062 23.398438 12.785156 32h-44.785156zm304 0v53.40625h-44.785156c8.121094-8.601562 12.785156-20.160156 12.785156-32 0-12.273438-4.976562-24.289062-13.65625-32.96875l-2.34375-2.34375v-12.6875h-16v19.3125l7.03125 7.03125c5.695312 5.703125 8.96875 13.59375 8.96875 21.65625s-3.273438 15.953125-8.96875 21.65625l-7.03125 7.03125v3.3125h-57.222656l-6.457032-38.753906 4.535157-9.078125 13.71875 13.71875 32.753906-73.679688 49.328125 16.441407c16.351562 5.457031 27.34375 20.703124 27.34375 37.945312zm-91.921875-59.464844-22.652344 50.984375-26.113281-26.113281 30.847656-30.847656zm0 0"/><path d="m272 32h112v16h-112zm0 0"/><path d="m368 64h16v16h-16zm0 0"/><path d="m272 64h80v16h-80zm0 0"/></svg>