<svg height="496pt" viewBox="0 0 496 496" width="496pt" xmlns="http://www.w3.org/2000/svg"><path d="m112 32h64v16h-64zm0 0"/><path d="m192 32h16v16h-16zm0 0"/><path d="m80 32h16v16h-16zm0 0"/><path d="m120 448h48v16h-48zm0 0"/><path d="m496 184c0-32.097656-11.398438-62.992188-32-87.472656v-96.527344h-64v16h-48v16h-48v16h-16v-8c0-22.054688-17.945312-40-40-40h-208c-22.054688 0-40 17.945312-40 40v416c0 22.054688 17.945312 40 40 40h208c22.054688 0 40-17.945312 40-40v-156.832031c14.433594 9.054687 30.625 15.472656 48 18.585937v34.246094h-16v104c0 22.054688 17.945312 40 40 40s40-17.945312 40-40v-104h-16v-34.246094c63.566406-11.386718 112-66.960937 112-133.753906zm-16 0c0 66.167969-53.832031 120-120 120s-120-53.832031-120-120c0-21.128906 5.632812-41.664062 16-59.710938v67.710938h208v-67.710938c10.367188 18.046876 16 38.582032 16 59.710938zm-240 63.863281v136.136719h-192v-272h196.710938c-13.414063 21.472656-20.710938 46.351562-20.710938 72 0 23.078125 5.816406 44.808594 16 63.863281zm208-231.863281v160h-32v-160zm-48 16v144h-32v-144zm-48 16v128h-32v-128zm-48 128h-32v-112h32zm-264-160h208c13.230469 0 24 10.769531 24 24v8h-16v16h-240v-24c0-13.230469 10.769531-24 24-24zm208 464h-208c-13.230469 0-24-10.769531-24-24v-24h256v24c0 13.230469-10.769531 24-24 24zm24-64h-256v-336h240v16h-224v304h224v-128.542969c4.871094 5.789063 10.238281 11.144531 16 16.046875zm112 40c0 13.230469-10.769531 24-24 24s-24-10.769531-24-24v-88h48zm-16-104h-16v-32.40625c2.664062.160156 5.296875.40625 8 .40625s5.335938-.246094 8-.40625zm0 0"/><path d="m296 208h128v16h-128zm0 0"/><path d="m408 240h16v16h-16zm0 0"/><path d="m296 240h96v16h-96zm0 0"/><path d="m208 128h-144v80h144zm-16 64h-112v-48h112zm0 0"/><path d="m112 368h112v-80h-112zm16-64h80v48h-80zm0 0"/><path d="m64 352h32v16h-32zm0 0"/><path d="m64 320h32v16h-32zm0 0"/><path d="m64 288h32v16h-32zm0 0"/><path d="m64 224h144v16h-144zm0 0"/><path d="m64 256h160v16h-160zm0 0"/></svg>