<svg height="496pt" viewBox="0 0 496 496" width="496pt" xmlns="http://www.w3.org/2000/svg"><path d="m496 136c0-74.992188-61.007812-136-136-136-37.726562 0-72.792969 15.089844-98.742188 42.488281l11.605469 11c22.914063-24.175781 53.847657-37.488281 87.136719-37.488281 66.167969 0 120 53.832031 120 120s-53.832031 120-120 120-120-53.832031-120-120c0-22.6875 5.023438-42.871094 14.921875-59.992188l6.941406-12.007812h-229.863281v304h-8c-13.230469 0-24 10.769531-24 24v32c0 13.230469 10.769531 24 24 24h8v32h296.207031c7.3125 9.65625 18.785157 16 31.792969 16 22.054688 0 40-17.945312 40-40v-168h-16v-18.246094c63.566406-11.386718 112-66.960937 112-133.753906zm-251.167969 72h-164.832031v-96h145.984375c-1.214844 7.726562-1.984375 15.6875-1.984375 24 0 26.457031 7.710938 51.089844 20.832031 72zm-180.832031 208h128v16h-128zm144-27.054688 38.113281 19.054688-38.113281 19.054688zm-16 11.054688h-128v-16h128zm-176 24v-32c0-4.414062 3.585938-8 8-8h24v48h-24c-4.414062 0-8-3.585938-8-8zm32 40v-16h153.886719l80-40-80-40h-153.886719v-288h187.007812c-2.238281 5.121094-4.015624 10.503906-5.574218 16h-165.433594v128h192.496094c8.710937 10.230469 18.917968 19.128906 30.273437 26.414062l-28.539062 85.585938h-10.230469v-48h-16v48h-16v-16h-16v16h-16v-48h-16v48h-16v-32h-16v32h-16v-48h-16v48h-16v16h181.769531l31.214844-93.664062c10.953125 5.304687 22.679687 9.199218 35.015625 11.40625v18.257812h-16v168c0 2.734375.28125 5.414062.808594 8zm336-8c0 13.230469-10.769531 24-24 24s-24-10.769531-24-24v-152h48zm-16-168h-16v-16.40625c2.664062.160156 5.296875.40625 8 .40625s5.335938-.246094 8-.40625zm0 0"/><path d="m64 240h16v16h-16zm0 0"/><path d="m96 240h152v16h-152zm0 0"/><path d="m256 136c0 24.550781 8.769531 48.414062 24.679688 67.183594l12.199218-10.34375c-13.464844-15.878906-20.878906-36.0625-20.878906-56.839844 0-48.519531 39.480469-88 88-88 20.777344 0 40.960938 7.414062 56.839844 20.878906l10.34375-12.199218c-18.769532-15.910157-42.632813-24.679688-67.183594-24.679688-57.34375 0-104 46.65625-104 104zm0 0"/><path d="m360 224c-20.777344 0-40.960938-7.414062-56.839844-20.878906l-10.34375 12.199218c18.769532 15.910157 42.632813 24.679688 67.183594 24.679688 57.34375 0 104-46.65625 104-104 0-24.550781-8.769531-48.414062-24.679688-67.183594l-12.199218 10.34375c13.464844 15.878906 20.878906 36.0625 20.878906 56.839844 0 48.519531-39.480469 88-88 88zm0 0"/></svg>