<svg height="496pt" viewBox="0 0 496 496" width="496pt" xmlns="http://www.w3.org/2000/svg"><path d="m494.855469 123.878906c-14.953125-24.917968-22.855469-53.453125-22.855469-82.527344v-17.351562h-8c-18.320312 0-32-8.449219-32-16v-8h-128v8c0 7.550781-13.679688 16-32 16h-8v17.351562c0 18.71875-3.320312 37.199219-9.648438 54.648438h-150.351562c-22.054688 0-40 17.945312-40 40v280h-64v40c0 22.054688 17.945312 40 40 40h240c22.054688 0 40-17.945312 40-40v-177.742188c5.152344 3.460938 10.441406 6.773438 16 9.734376l32 17.078124 32-17.070312c59.214844-31.574219 96-92.878906 96-160v-2.214844zm-190.855469 332.121094c0 13.230469-10.769531 24-24 24s-24-10.769531-24-24v-40h-160v16h144v24c0 9.039062 3.128906 17.296875 8.207031 24h-208.207031c-13.230469 0-24-10.769531-24-24v-24h64v-296c0-13.230469 10.769531-24 24-24h143.527344c-1.976563 4.03125-4.0625 8.015625-6.390625 11.878906l-1.136719 1.90625v2.214844c0 54 23.847656 104.214844 64 138.230469zm88.472656-182.121094-24.472656 13.050782-24.472656-13.058594c-53.351563-28.445313-86.734375-83.367188-87.511719-143.710938 15.695313-26.945312 23.984375-57.601562 23.984375-88.808594v-1.777343c19.023438-2.046875 33.976562-11.300781 38.542969-23.574219h98.90625c4.574219 12.273438 19.519531 21.527344 38.542969 23.574219v1.777343c0 31.207032 8.289062 61.863282 23.984374 88.816407-.769531 60.335937-34.152343 115.265625-87.503906 143.710937zm0 0"/><path d="m416 80c0-26.472656-21.527344-48-48-48s-48 21.527344-48 48v48h-16v45.761719c0 37.839843 25.414062 71.535156 61.800781 81.933593l2.199219.625 2.199219-.625c36.386719-10.398437 61.800781-44.09375 61.800781-81.933593v-45.761719h-16zm-80 0c0-17.648438 14.351562-32 32-32s32 14.351562 32 32v48h-64zm80 93.761719c0 29.972656-19.625 56.742187-48 65.878906-28.375-9.144531-48-35.90625-48-65.878906v-29.761719h96zm0 0"/><path d="m360 206.527344v17.472656h16v-17.472656c9.289062-3.3125 16-12.113282 16-22.527344 0-13.230469-10.769531-24-24-24s-24 10.769531-24 24c0 10.414062 6.710938 19.214844 16 22.527344zm8-30.527344c4.40625 0 8 3.585938 8 8s-3.59375 8-8 8-8-3.585938-8-8 3.59375-8 8-8zm0 0"/><path d="m96 400h48v-96h-48zm16-80h16v64h-16zm0 0"/><path d="m160 400h48v-128h-48zm16-112h16v96h-16zm0 0"/><path d="m224 400h48v-80h-48zm16-64h16v48h-16zm0 0"/><path d="m248 256c-4.910156 0-9.480469 1.496094-13.289062 4.039062l-27.902344-20.925781c.703125-2.265625 1.191406-4.625 1.191406-7.113281 0-13.230469-10.769531-24-24-24s-24 10.769531-24 24c0 .992188.175781 1.945312.296875 2.910156l-23.679687 11.84375c-4.320313-4.160156-10.160157-6.753906-16.617188-6.753906-13.230469 0-24 10.769531-24 24s10.769531 24 24 24 24-10.769531 24-24c0-.992188-.175781-1.945312-.296875-2.902344l23.679687-11.839844c4.320313 4.148438 10.160157 6.742188 16.617188 6.742188 4.910156 0 9.480469-1.496094 13.289062-4.03125l27.910157 20.933594c-.710938 2.257812-1.199219 4.609375-1.199219 7.097656 0 13.230469 10.769531 24 24 24s24-10.769531 24-24-10.769531-24-24-24zm-128 16c-4.40625 0-8-3.585938-8-8s3.59375-8 8-8 8 3.585938 8 8-3.59375 8-8 8zm64-32c-4.40625 0-8-3.585938-8-8s3.59375-8 8-8 8 3.585938 8 8-3.59375 8-8 8zm64 48c-4.40625 0-8-3.585938-8-8s3.59375-8 8-8 8 3.585938 8 8-3.59375 8-8 8zm0 0"/><path d="m96 128h16v16h-16zm0 0"/><path d="m128 128h96v16h-96zm0 0"/><path d="m128 160h96v16h-96zm0 0"/><path d="m96 160h16v16h-16zm0 0"/><path d="m208 448h16v16h-16zm0 0"/><path d="m32 448h160v16h-160zm0 0"/></svg>