<svg height="496pt" viewBox="0 0 496 496" width="496pt" xmlns="http://www.w3.org/2000/svg"><path d="m160 320c-26.472656 0-48 21.527344-48 48s21.527344 48 48 48 48-21.527344 48-48-21.527344-48-48-48zm0 80c-17.648438 0-32-14.351562-32-32s14.351562-32 32-32 32 14.351562 32 32-14.351562 32-32 32zm0 0"/><path d="m456 328h-136v16h-32v-6.257812l-21.886719-5.445313c-1.640625-4.890625-3.578125-9.609375-5.816406-14.113281l11.597656-19.304688-15.894531-15.894531v-26.984375h208v-160h-18.34375l-194.328125 124.375c-4.703125-8.886719-12.664063-15.917969-22.679687-19.253906l-2.296876-.769532 235.816407-155.046874-13.519531 31.542968 14.703124 6.304688 28.785157-67.152344h-68.136719v16h29.273438l-246.25 161.902344-47.023438-15.671875v-4.34375c8.007812-5.597657 14.457031-13.238281 18.648438-22.160157 16.167968-1.351562 28.945312-14.703124 29.289062-31.726562h.0625v-47.015625c0-22.328125-14.625-41.800781-35.832031-48.136719l-4.28125-4.28125c-13.269531-13.261718-30.902344-20.566406-49.664063-20.566406-38.71875 0-70.222656 31.503906-70.222656 70.222656v49.777344.007812c0 16.734376 12.960938 30.351563 29.351562 31.726563 4.191407 8.921875 10.640626 16.5625 18.648438 22.160156v4.34375l-68.648438 22.882813c-16.359374 5.445312-27.351562 20.703125-27.351562 37.941406v48.9375h58.984375l-10.878906 10.878906 11.597656 19.304688c-2.230469 4.503906-4.167969 9.222656-5.816406 14.113281l-21.886719 5.445313v60.503906l21.886719 5.449218c1.640625 4.890626 3.578125 9.609376 5.816406 14.113282l-11.597656 19.304687 42.78125 42.78125 19.296875-11.605469c4.503906 2.230469 9.222656 4.175782 14.113281 5.808594l5.457031 21.902344h60.492188l5.464844-21.894531c6.402343-2.144531 12.519531-4.816407 18.242187-7.976563l-7.722656-14.007812c-6.007813 3.3125-12.542969 6-19.4375 8l-4.417969 1.285156-4.621094 18.59375h-35.507812l-4.628906-18.585938-4.417969-1.285156c-6.886719-2-13.429688-4.695312-19.4375-8l-4.035157-2.226562-16.382812 9.851562-25.097656-25.105468 9.832031-16.375-2.214844-4.035157c-3.304687-6-6-12.542969-8.007812-19.4375l-1.28125-4.417969-18.574219-4.640624v-35.496094l18.585938-4.628906 1.277343-4.417969c2.007813-6.894531 4.703125-13.4375 8.007813-19.4375l2.21875-4.035157-9.832032-16.375 29.511719-29.519531-11.3125-11.3125-11.472656 11.480469h-58.984375v-32.9375c0-10.34375 6.59375-19.496094 16.414062-22.765625l25.777344-8.59375 36.703125 52.710937 33.105469-33.101562 12.6875 12.6875h-10.933594l-5.464844 21.894531c-6.402343 2.144531-12.519531 4.816407-18.242187 7.976563l7.722656 14.007812c6.007813-3.3125 12.542969-6 19.4375-8l4.417969-1.285156 4.621094-18.59375h35.507812l4.628906 18.585938 4.417969 1.285156c6.886719 2 13.429688 4.695312 19.4375 8l4.035157 2.226562 16.382812-9.851562 25.097656 25.105468-9.832031 16.375 2.214844 4.035157c3.304687 6 6 12.542969 8.007812 19.4375l1.28125 4.417969 18.574219 4.640624v35.496094l-18.585938 4.628906-1.277343 4.417969c-2.007813 6.894531-4.703125 13.4375-8.007813 19.4375l-2.21875 4.035157 9.832032 16.375-29.511719 29.519531 11.3125 11.3125 38.359375-38.359375-11.597656-19.304688c2.230468-4.503906 4.167968-9.222656 5.816406-14.113281l21.878906-5.445313v-6.257812h32v16h136c22.054688 0 40-17.945312 40-40s-17.945312-40-40-40zm-72-88h-16v-75.304688l16-10.238281zm16-95.785156 16-10.238282v106.023438h-16zm-48 95.785156h-16v-54.824219l16-10.238281zm-32 0h-16v-34.34375l16-10.242188zm128-126.496094v126.496094h-16v-116.265625zm-192 122.871094 32-20.480469v24.105469h-32zm-72.320312-102.4375c.199218-1.953125.320312-3.929688.320312-5.9375v-22.0625c1.265625.6875 2.464844 1.503906 3.503906 2.542969 2.902344 2.894531 4.496094 6.742187 4.496094 11.449219 0 6.046874-3.390625 11.269531-8.320312 14.007812zm-65.457032-117.9375c14.488282 0 28.105469 5.640625 38.34375 15.878906l7.335938 7.335938 2.160156.539062c15.273438 3.832032 25.9375 17.484375 25.9375 33.230469v19.183594c-4.703125-2.640625-10.054688-4.167969-15.976562-4.167969-.007813 0-.015626 0-.023438 0-8.0625 0-15.953125-3.273438-21.65625-8.96875l-9.328125-9.328125-5.457031 3.640625c-14.382813 9.59375-31.109375 14.65625-48.398438 14.65625h-11.160156c-5.855469 0-11.273438 1.695312-16 4.457031v-22.234375c0-29.894531 24.328125-54.222656 54.222656-54.222656zm-54.222656 104.007812c0-5.894531 3.238281-11 8-13.777343v21.769531c0 2.015625.121094 4 .328125 5.953125-4.9375-2.722656-8.328125-7.921875-8.328125-13.945313zm24 7.992188v-24h3.160156c18.246094 0 35.976563-4.777344 51.671875-13.855469l.199219.199219c6.703125 6.703125 15.402344 11.160156 24.96875 12.863281v24.792969c0 22.054688-17.945312 40-40 40s-40-17.945312-40-40zm55.710938 53.710938-15.710938 20.953124-15.710938-20.953124c4.992188 1.464843 10.253907 2.289062 15.710938 2.289062s10.71875-.824219 15.710938-2.289062zm-69.703126 20.722656 27.046876-9.019532 16.378906 21.84375-20.335938 20.335938zm80.929688-9.019532 27.046875 9.019532-23.089844 33.160156-20.335937-20.335938zm54.886719 74.289063c-4.503907-2.230469-9.222657-4.175781-14.113281-5.808594l-5.464844-21.894531h-14.933594l22.488281-32.296875 25.773438 8.59375c9.832031 3.269531 16.425781 12.414063 16.425781 22.765625v27.921875l-10.878906-10.878906zm78.175781 108.296875v-16h32v16zm168 16h-120v-48h120c13.230469 0 24 10.769531 24 24s-10.769531 24-24 24zm0 0"/><path d="m464 368c0 4.417969-3.582031 8-8 8s-8-3.582031-8-8 3.582031-8 8-8 8 3.582031 8 8zm0 0"/><path d="m240 368c0-18.097656-6.246094-35.847656-17.59375-50l-12.484375 10.015625c9.214844 11.480469 14.078125 25.304687 14.078125 39.984375 0 35.289062-28.710938 64-64 64-14.679688 0-28.496094-4.863281-39.976562-14.070312l-10.015626 12.476562c14.351563 11.503906 31.632813 17.59375 49.992188 17.59375 44.113281 0 80-35.886719 80-80zm0 0"/><path d="m160 288c-44.113281 0-80 35.886719-80 80 0 18.097656 6.246094 35.847656 17.59375 50l12.484375-10.015625c-9.214844-11.480469-14.078125-25.304687-14.078125-39.984375 0-35.289062 28.710938-64 64-64 14.679688 0 28.496094 4.863281 39.976562 14.070312l10.015626-12.476562c-14.351563-11.503906-31.632813-17.59375-49.992188-17.59375zm0 0"/></svg>