<svg height="496pt" viewBox="0 0 496 496" width="496pt" xmlns="http://www.w3.org/2000/svg"><path d="m96 400h16v16h-16zm0 0"/><path d="m64 400h16v16h-16zm0 0"/><path d="m32 400h16v16h-16zm0 0"/><path d="m464 112.808594v-88.808594c0-13.230469-10.769531-24-24-24h-160c-13.230469 0-24 10.769531-24 24v96c0 13.230469 10.769531 24 24 24h80v38.953125l58.425781-38.953125h21.574219c10.070312 0 18.6875-6.257812 22.238281-15.070312 10.203125 2.757812 17.761719 12.007812 17.761719 23.070312v232h-341.574219l-24-16h-98.425781v-216c0-11.0625 7.558594-20.3125 17.761719-23.070312 3.550781 8.8125 12.167969 15.070312 22.238281 15.070312h21.574219l58.425781 38.953125v-38.953125h80c13.230469 0 24-10.769531 24-24v-96c0-13.230469-10.769531-24-24-24h-160c-13.230469 0-24 10.769531-24 24v88.808594c-18.230469 3.71875-32 19.878906-32 39.191406v256c0 22.054688 17.945312 40 40 40h104v32h-32v16h272v-16h-32v-32h104c22.054688 0 40-17.945312 40-40v-256c0-19.3125-13.769531-35.472656-32-39.191406zm-16 7.191406c0 4.40625-3.585938 8-8 8h-26.425781l-37.574219 25.046875v-25.046875h-96c-4.414062 0-8-3.59375-8-8v-96c0-4.40625 3.585938-8 8-8h160c4.414062 0 8 3.59375 8 8zm-400-96c0-4.40625 3.585938-8 8-8h160c4.414062 0 8 3.59375 8 8v96c0 4.40625-3.585938 8-8 8h-96v25.046875l-37.574219-25.046875h-26.425781c-4.414062 0-8-3.59375-8-8zm408 408h-280v16h160v32h-176v-48h-120c-13.230469 0-24-10.769531-24-24v-24h93.574219l24 16h346.425781v8c0 13.230469-10.769531 24-24 24zm0 0"/><path d="m248 160c-62.800781 0-121.078125 31.191406-155.902344 83.441406l-13.714844 20.558594 13.714844 20.558594c34.824219 52.25 93.101563 83.441406 155.902344 83.441406s121.078125-31.191406 155.902344-83.441406l13.714844-20.558594-13.714844-20.558594c-34.824219-52.25-93.101563-83.441406-155.902344-83.441406zm88 104c0 48.519531-39.480469 88-88 88s-88-39.480469-88-88 39.480469-88 88-88 88 39.480469 88 88zm-230.59375 11.6875-7.789062-11.6875 7.789062-11.6875c16.769531-25.160156 39.523438-44.914062 65.65625-58.039062-16.757812 18.46875-27.0625 42.886718-27.0625 69.726562s10.304688 51.257812 27.054688 69.726562c-26.125-13.132812-48.878907-32.878906-65.648438-58.039062zm285.1875 0c-16.769531 25.160156-39.523438 44.914062-65.65625 58.039062 16.757812-18.46875 27.0625-42.886718 27.0625-69.726562s-10.304688-51.257812-27.054688-69.726562c26.132813 13.125 48.886719 32.878906 65.65625 58.039062l7.78125 11.6875zm0 0"/><path d="m248 320c30.871094 0 56-25.121094 56-56s-25.128906-56-56-56-56 25.121094-56 56 25.128906 56 56 56zm0-96c22.054688 0 40 17.945312 40 40s-17.945312 40-40 40-40-17.945312-40-40 17.945312-40 40-40zm0 0"/><path d="m248 288c13.230469 0 24-10.769531 24-24s-10.769531-24-24-24-24 10.769531-24 24 10.769531 24 24 24zm0-32c4.414062 0 8 3.59375 8 8s-3.585938 8-8 8-8-3.59375-8-8 3.585938-8 8-8zm0 0"/><path d="m64 32h16v16h-16zm0 0"/><path d="m96 32h112v16h-112zm0 0"/><path d="m64 64h144v16h-144zm0 0"/><path d="m64 96h144v16h-144zm0 0"/><path d="m288 32h16v16h-16zm0 0"/><path d="m320 32h112v16h-112zm0 0"/><path d="m288 64h144v16h-144zm0 0"/><path d="m288 96h112v16h-112zm0 0"/><path d="m400 352h64v16h-64zm0 0"/><path d="m400 320h64v16h-64zm0 0"/><path d="m32 336h64v16h-64zm0 0"/><path d="m32 304h64v16h-64zm0 0"/></svg>