<svg height="496pt" viewBox="0 0 496 496" width="496pt" xmlns="http://www.w3.org/2000/svg"><path d="m306.929688 243.6875c30.085937-23.191406 50.316406-58.695312 52.8125-99.191406l-15.964844-.984375c-2.097656 33.960937-18.394532 63.863281-42.785156 84.328125l-5.488282-14.648438-14.984375 5.617188 7.074219 18.863281c-18.503906 11.59375-40.3125 18.328125-63.59375 18.328125-28.167969 0-54.054688-9.824219-74.550781-26.136719l16.207031-16.207031-11.3125-11.3125-16.734375 16.734375c-20.761719-21.582031-33.609375-50.839844-33.609375-83.078125 0-66.167969 53.832031-120 120-120 60.414062 0 111.609375 45.136719 119.070312 104.992188l.875 7.007812h113.957032l-31.023438 25.855469 10.242188 12.289062 55.375-46.144531-55.375-46.144531-10.242188 12.289062 31.023438 25.855469h-100.015625c-11.4375-64.335938-67.789063-112-133.886719-112-74.992188 0-136 61.007812-136 136 0 36.65625 14.640625 69.902344 38.304688 94.382812l-9.617188 9.617188h-20.6875v-48h-16v48h-16v-32h-16v32h-16v-48h-16v48h-16v16h123.3125l14.71875-14.71875c17.542969 14.351562 38.753906 24.3125 61.960938 28.472656v18.246094h-26.746094c-10.679688 0-20.726563 4.160156-28.277344 11.710938l-12.28125 12.289062h-52.6875v-16h-80v160h80v-16h52.6875l12.289062 12.289062c7.550782 7.550782 17.589844 11.710938 28.28125 11.710938h10.742188v8c0 13.230469 10.769531 24 24 24h32c13.230469 0 24-10.769531 24-24v-8h8c13.230469 0 24-10.769531 24-24 0-6.167969-2.40625-11.742188-6.238281-16 3.839843-4.257812 6.238281-9.832031 6.238281-16s-2.40625-11.742188-6.238281-16c3.839843-4.257812 6.238281-9.832031 6.238281-16s-2.40625-11.742188-6.238281-16c3.839843-4.257812 6.238281-9.832031 6.238281-16 0-13.230469-10.769531-24-24-24h-8v-8c0-10.414062-6.710938-19.214844-16-22.527344v-19.6875c16.265625-2.914062 31.511719-8.761718 45.273438-16.945312l13.183593 35.160156h189.542969v-16h-178.457031zm-242.929688 196.3125h-16v-16h-16v16h-16v-128h16v16h16v-16h16zm92.289062.976562-16.976562-16.976562h-59.3125v-96h59.3125l16.976562-16.976562c4.464844-4.464844 10.648438-7.023438 16.96875-7.023438h66.742188c4.40625 0 8 3.59375 8 8v40c0 4.40625-3.59375 8-8 8s-8-3.59375-8-8v-32h-43.3125l-3.710938 3.710938c-13.089843 13.089843-30.480468 20.289062-48.976562 20.289062v16c17.441406 0 34.039062-5.265625 48.105469-14.9375.261719 5.746094 2.527343 10.9375 6.132812 14.9375-3.839843 4.257812-6.238281 9.832031-6.238281 16s2.40625 11.742188 6.238281 16c-3.839843 4.257812-6.238281 9.832031-6.238281 16s2.40625 11.742188 6.238281 16c-3.839843 4.257812-6.238281 9.832031-6.238281 16 0 2.816406.574219 5.488281 1.472656 8h-12.226562c-6.308594 0-12.492188-2.558594-16.957032-7.023438zm101.472657-72.976562h14.238281c4.40625 0 8 3.59375 8 8s-3.59375 8-8 8h-64c-4.40625 0-8-3.59375-8-8s3.59375-8 8-8h14.238281c4.394531 4.871094 10.699219 8 17.761719 8s13.359375-3.128906 17.761719-8zm22.238281 40c0 4.40625-3.59375 8-8 8h-64c-4.40625 0-8-3.59375-8-8s3.59375-8 8-8h64c4.40625 0 8 3.59375 8 8zm-64-56h-8c-4.40625 0-8-3.59375-8-8v-8h16zm32 120c0 4.40625-3.59375 8-8 8h-32c-4.40625 0-8-3.59375-8-8v-8h48zm24-24h-64c-4.40625 0-8-3.59375-8-8s3.59375-8 8-8h64c4.40625 0 8 3.59375 8 8s-3.59375 8-8 8zm0-112c4.40625 0 8 3.59375 8 8s-3.59375 8-8 8h-8v-16zm-40-48h-16v-16.40625c2.664062.160156 5.296875.40625 8 .40625 2.695312 0 5.335938-.230469 8-.390625zm0 0"/><path d="m368 240h96v16h-96zm0 0"/><path d="m480 240h16v16h-16zm0 0"/><path d="m368 208h128v16h-128zm0 0"/><path d="m232 208v-32h16v-80h-16v-32h-16v32h-16v80h16v32zm-16-96h16v48h-16zm0 0"/><path d="m296 192v-32h16v-80h-16v-32h-16v32h-16v80h16v32zm-16-96h16v48h-16zm0 0"/><path d="m168 192v-32h16v-80h-16v-32h-16v32h-16v80h16v32zm-16-96h16v48h-16zm0 0"/><path d="m32 344h16v64h-16zm0 0"/></svg>