<svg height="496pt" viewBox="0 0 496 496" width="496pt" xmlns="http://www.w3.org/2000/svg"><path d="m32 32h16v16h-16zm0 0"/><path d="m64 32h16v16h-16zm0 0"/><path d="m96 32h16v16h-16zm0 0"/><path d="m448 160v16h32v48h-400v-48h352v-176h-432v336h64v160h432v-336zm-64 0h-176v-48h176zm32-144v48h-400v-48zm-336 464v-160h-64v-240h400v80h-16v-64h-208v64h-128v144h16v-64h400v240zm0 0"/><path d="m96 192h16v16h-16zm0 0"/><path d="m128 192h16v16h-16zm0 0"/><path d="m160 192h16v16h-16zm0 0"/><path d="m360 256c-49.265625 0-90.550781 34.472656-101.230469 80.535156l-30.328125-48.535156h-20.441406v-32h-112v80h112v-32h11.558594l36.5625 58.496094c1.351562 56.183594 47.375 101.503906 103.878906 101.503906 57.34375 0 104-46.65625 104-104s-46.65625-104-104-104zm-168 64h-80v-48h80zm224.273438-27.585938-11.386719 11.386719c-12.320313-9.863281-27.910157-15.800781-44.886719-15.800781s-32.566406 5.9375-44.886719 15.800781l-11.386719-11.386719c15.273438-12.726562 34.890626-20.414062 56.273438-20.414062s41 7.6875 56.273438 20.414062zm-56.273438 123.585938c-30.871094 0-56-25.128906-56-56s25.128906-56 56-56 56 25.128906 56 56-25.128906 56-56 56zm-67.585938-112.273438 11.386719 11.386719c-9.863281 12.320313-15.800781 27.910157-15.800781 44.886719s5.9375 32.566406 15.800781 44.886719l-11.386719 11.386719c-12.726562-15.273438-20.414062-34.890626-20.414062-56.273438s7.6875-41 20.414062-56.273438zm11.3125 123.859376 11.386719-11.386719c12.320313 9.863281 27.910157 15.800781 44.886719 15.800781s32.566406-5.9375 44.886719-15.800781l11.386719 11.386719c-15.273438 12.726562-34.890626 20.414062-56.273438 20.414062s-41-7.6875-56.273438-20.414062zm123.859376-11.3125-11.386719-11.386719c9.863281-12.320313 15.800781-27.910157 15.800781-44.886719s-5.9375-32.566406-15.800781-44.886719l11.386719-11.386719c12.726562 15.273438 20.414062 34.890626 20.414062 56.273438s-7.6875 41-20.414062 56.273438zm0 0"/><path d="m128 288h48v16h-48zm0 0"/><path d="m96 352h112v16h-112zm0 0"/><path d="m96 384h16v16h-16zm0 0"/><path d="m128 384h80v16h-80zm0 0"/><path d="m96 416h112v16h-112zm0 0"/><path d="m96 448h80v16h-80zm0 0"/><path d="m192 448h16v16h-16zm0 0"/><path d="m32 96h16v16h-16zm0 0"/><path d="m64 96h112v16h-112zm0 0"/><path d="m32 128h144v16h-144zm0 0"/></svg>